G04 #@! TF.GenerationSoftware,KiCad,Pcbnew,(5.1.6)-1*
G04 #@! TF.CreationDate,2020-10-07T22:12:15+02:00*
G04 #@! TF.ProjectId,PeugeoutTypeCDisplayHack,50657567-656f-4757-9454-797065434469,1*
G04 #@! TF.SameCoordinates,Original*
G04 #@! TF.FileFunction,Legend,Top*
G04 #@! TF.FilePolarity,Positive*
%FSLAX46Y46*%
G04 Gerber Fmt 4.6, Leading zero omitted, Abs format (unit mm)*
G04 Created by KiCad (PCBNEW (5.1.6)-1) date 2020-10-07 22:12:15*
%MOMM*%
%LPD*%
G01*
G04 APERTURE LIST*
%ADD10C,0.120000*%
%ADD11C,0.150000*%
G04 APERTURE END LIST*
D10*
X100000000Y-99000000D02*
X100000000Y-125000000D01*
D11*
X103516380Y-108743476D02*
X103516380Y-108648238D01*
X103564000Y-108553000D01*
X103611619Y-108505380D01*
X103706857Y-108457761D01*
X103897333Y-108410142D01*
X104135428Y-108410142D01*
X104325904Y-108457761D01*
X104421142Y-108505380D01*
X104468761Y-108553000D01*
X104516380Y-108648238D01*
X104516380Y-108743476D01*
X104468761Y-108838714D01*
X104421142Y-108886333D01*
X104325904Y-108933952D01*
X104135428Y-108981571D01*
X103897333Y-108981571D01*
X103706857Y-108933952D01*
X103611619Y-108886333D01*
X103564000Y-108838714D01*
X103516380Y-108743476D01*
X104516380Y-107933952D02*
X104516380Y-107743476D01*
X104468761Y-107648238D01*
X104421142Y-107600619D01*
X104278285Y-107505380D01*
X104087809Y-107457761D01*
X103706857Y-107457761D01*
X103611619Y-107505380D01*
X103564000Y-107553000D01*
X103516380Y-107648238D01*
X103516380Y-107838714D01*
X103564000Y-107933952D01*
X103611619Y-107981571D01*
X103706857Y-108029190D01*
X103944952Y-108029190D01*
X104040190Y-107981571D01*
X104087809Y-107933952D01*
X104135428Y-107838714D01*
X104135428Y-107648238D01*
X104087809Y-107553000D01*
X104040190Y-107505380D01*
X103944952Y-107457761D01*
X103468761Y-106314904D02*
X104754476Y-107172047D01*
X103611619Y-106029190D02*
X103564000Y-105981571D01*
X103516380Y-105886333D01*
X103516380Y-105648238D01*
X103564000Y-105553000D01*
X103611619Y-105505380D01*
X103706857Y-105457761D01*
X103802095Y-105457761D01*
X103944952Y-105505380D01*
X104516380Y-106076809D01*
X104516380Y-105457761D01*
X103516380Y-104838714D02*
X103516380Y-104743476D01*
X103564000Y-104648238D01*
X103611619Y-104600619D01*
X103706857Y-104553000D01*
X103897333Y-104505380D01*
X104135428Y-104505380D01*
X104325904Y-104553000D01*
X104421142Y-104600619D01*
X104468761Y-104648238D01*
X104516380Y-104743476D01*
X104516380Y-104838714D01*
X104468761Y-104933952D01*
X104421142Y-104981571D01*
X104325904Y-105029190D01*
X104135428Y-105076809D01*
X103897333Y-105076809D01*
X103706857Y-105029190D01*
X103611619Y-104981571D01*
X103564000Y-104933952D01*
X103516380Y-104838714D01*
X103611619Y-104124428D02*
X103564000Y-104076809D01*
X103516380Y-103981571D01*
X103516380Y-103743476D01*
X103564000Y-103648238D01*
X103611619Y-103600619D01*
X103706857Y-103553000D01*
X103802095Y-103553000D01*
X103944952Y-103600619D01*
X104516380Y-104172047D01*
X104516380Y-103553000D01*
X103516380Y-102933952D02*
X103516380Y-102838714D01*
X103564000Y-102743476D01*
X103611619Y-102695857D01*
X103706857Y-102648238D01*
X103897333Y-102600619D01*
X104135428Y-102600619D01*
X104325904Y-102648238D01*
X104421142Y-102695857D01*
X104468761Y-102743476D01*
X104516380Y-102838714D01*
X104516380Y-102933952D01*
X104468761Y-103029190D01*
X104421142Y-103076809D01*
X104325904Y-103124428D01*
X104135428Y-103172047D01*
X103897333Y-103172047D01*
X103706857Y-103124428D01*
X103611619Y-103076809D01*
X103564000Y-103029190D01*
X103516380Y-102933952D01*
X103849714Y-101505380D02*
X104516380Y-101267285D01*
X103849714Y-101029190D01*
X103611619Y-100695857D02*
X103564000Y-100648238D01*
X103516380Y-100553000D01*
X103516380Y-100314904D01*
X103564000Y-100219666D01*
X103611619Y-100172047D01*
X103706857Y-100124428D01*
X103802095Y-100124428D01*
X103944952Y-100172047D01*
X104516380Y-100743476D01*
X104516380Y-100124428D01*
X102738380Y-114204119D02*
X101738380Y-114204119D01*
X102214571Y-114204119D02*
X102214571Y-113632690D01*
X102738380Y-113632690D02*
X101738380Y-113632690D01*
X102452666Y-113204119D02*
X102452666Y-112727928D01*
X102738380Y-113299357D02*
X101738380Y-112966023D01*
X102738380Y-112632690D01*
X102643142Y-111727928D02*
X102690761Y-111775547D01*
X102738380Y-111918404D01*
X102738380Y-112013642D01*
X102690761Y-112156500D01*
X102595523Y-112251738D01*
X102500285Y-112299357D01*
X102309809Y-112346976D01*
X102166952Y-112346976D01*
X101976476Y-112299357D01*
X101881238Y-112251738D01*
X101786000Y-112156500D01*
X101738380Y-112013642D01*
X101738380Y-111918404D01*
X101786000Y-111775547D01*
X101833619Y-111727928D01*
X102738380Y-111299357D02*
X101738380Y-111299357D01*
X102738380Y-110727928D02*
X102166952Y-111156500D01*
X101738380Y-110727928D02*
X102309809Y-111299357D01*
X102738380Y-110299357D02*
X101738380Y-110299357D01*
X102738380Y-109823166D02*
X101738380Y-109823166D01*
X102738380Y-109251738D01*
X101738380Y-109251738D01*
X101786000Y-108251738D02*
X101738380Y-108346976D01*
X101738380Y-108489833D01*
X101786000Y-108632690D01*
X101881238Y-108727928D01*
X101976476Y-108775547D01*
X102166952Y-108823166D01*
X102309809Y-108823166D01*
X102500285Y-108775547D01*
X102595523Y-108727928D01*
X102690761Y-108632690D01*
X102738380Y-108489833D01*
X102738380Y-108394595D01*
X102690761Y-108251738D01*
X102643142Y-108204119D01*
X102309809Y-108204119D01*
X102309809Y-108394595D01*
X102643142Y-107204119D02*
X102690761Y-107251738D01*
X102738380Y-107394595D01*
X102738380Y-107489833D01*
X102690761Y-107632690D01*
X102595523Y-107727928D01*
X102500285Y-107775547D01*
X102309809Y-107823166D01*
X102166952Y-107823166D01*
X101976476Y-107775547D01*
X101881238Y-107727928D01*
X101786000Y-107632690D01*
X101738380Y-107489833D01*
X101738380Y-107394595D01*
X101786000Y-107251738D01*
X101833619Y-107204119D01*
X102738380Y-106775547D02*
X101738380Y-106775547D01*
X102214571Y-106775547D02*
X102214571Y-106204119D01*
X102738380Y-106204119D02*
X101738380Y-106204119D01*
X102738380Y-105727928D02*
X101738380Y-105727928D01*
X102738380Y-105251738D02*
X101738380Y-105251738D01*
X101738380Y-104870785D01*
X101786000Y-104775547D01*
X101833619Y-104727928D01*
X101928857Y-104680309D01*
X102071714Y-104680309D01*
X102166952Y-104727928D01*
X102214571Y-104775547D01*
X102262190Y-104870785D01*
X102262190Y-105251738D01*
X102690761Y-104299357D02*
X102738380Y-104156500D01*
X102738380Y-103918404D01*
X102690761Y-103823166D01*
X102643142Y-103775547D01*
X102547904Y-103727928D01*
X102452666Y-103727928D01*
X102357428Y-103775547D01*
X102309809Y-103823166D01*
X102262190Y-103918404D01*
X102214571Y-104108880D01*
X102166952Y-104204119D01*
X102119333Y-104251738D01*
X102024095Y-104299357D01*
X101928857Y-104299357D01*
X101833619Y-104251738D01*
X101786000Y-104204119D01*
X101738380Y-104108880D01*
X101738380Y-103870785D01*
X101786000Y-103727928D01*
X102643142Y-103299357D02*
X102690761Y-103251738D01*
X102738380Y-103299357D01*
X102690761Y-103346976D01*
X102643142Y-103299357D01*
X102738380Y-103299357D01*
X102643142Y-102251738D02*
X102690761Y-102299357D01*
X102738380Y-102442214D01*
X102738380Y-102537452D01*
X102690761Y-102680309D01*
X102595523Y-102775547D01*
X102500285Y-102823166D01*
X102309809Y-102870785D01*
X102166952Y-102870785D01*
X101976476Y-102823166D01*
X101881238Y-102775547D01*
X101786000Y-102680309D01*
X101738380Y-102537452D01*
X101738380Y-102442214D01*
X101786000Y-102299357D01*
X101833619Y-102251738D01*
X101738380Y-101632690D02*
X101738380Y-101442214D01*
X101786000Y-101346976D01*
X101881238Y-101251738D01*
X102071714Y-101204119D01*
X102405047Y-101204119D01*
X102595523Y-101251738D01*
X102690761Y-101346976D01*
X102738380Y-101442214D01*
X102738380Y-101632690D01*
X102690761Y-101727928D01*
X102595523Y-101823166D01*
X102405047Y-101870785D01*
X102071714Y-101870785D01*
X101881238Y-101823166D01*
X101786000Y-101727928D01*
X101738380Y-101632690D01*
X102738380Y-100775547D02*
X101738380Y-100775547D01*
X102452666Y-100442214D01*
X101738380Y-100108880D01*
X102738380Y-100108880D01*
X149911047Y-101766928D02*
X150672952Y-101766928D01*
X147879047Y-101766928D02*
X148640952Y-101766928D01*
X148260000Y-102147880D02*
X148260000Y-101385976D01*
D10*
X100000000Y-125000000D02*
X154000000Y-125000000D01*
X154000000Y-99000000D02*
X154000000Y-125000000D01*
X100000000Y-99000000D02*
X154000000Y-99000000D01*
X128500000Y-105307000D02*
X113500000Y-105307000D01*
X128500000Y-103697000D02*
X113500000Y-103697000D01*
X128500000Y-103697000D02*
X128500000Y-100557000D01*
X113500000Y-103697000D02*
X113500000Y-100557000D01*
X128500000Y-100557000D02*
X132300000Y-100557000D01*
X113500000Y-100557000D02*
X109700000Y-100557000D01*
X132300000Y-100557000D02*
X132300000Y-103917000D01*
X109700000Y-100557000D02*
X109700000Y-103917000D01*
X132300000Y-103917000D02*
X128500000Y-103917000D01*
X109700000Y-103917000D02*
X113500000Y-103917000D01*
X128500000Y-103917000D02*
X128500000Y-105307000D01*
X113500000Y-103917000D02*
X113500000Y-105307000D01*
X147263500Y-107772000D02*
X147263500Y-106712000D01*
X148323500Y-107772000D02*
X147263500Y-107772000D01*
X149323500Y-107772000D02*
X149323500Y-105652000D01*
X149323500Y-105652000D02*
X151383500Y-105652000D01*
X149323500Y-107772000D02*
X151383500Y-107772000D01*
X151383500Y-107772000D02*
X151383500Y-105652000D01*
X147295500Y-109931000D02*
X147295500Y-108871000D01*
X148355500Y-109931000D02*
X147295500Y-109931000D01*
X149355500Y-109931000D02*
X149355500Y-107811000D01*
X149355500Y-107811000D02*
X151415500Y-107811000D01*
X149355500Y-109931000D02*
X151415500Y-109931000D01*
X151415500Y-109931000D02*
X151415500Y-107811000D01*
X144417064Y-102500000D02*
X143212936Y-102500000D01*
X144417064Y-104320000D02*
X143212936Y-104320000D01*
X151320000Y-104470000D02*
X151320000Y-102350000D01*
X149260000Y-104470000D02*
X151320000Y-104470000D01*
X149260000Y-102350000D02*
X151320000Y-102350000D01*
X149260000Y-104470000D02*
X149260000Y-102350000D01*
X148260000Y-104470000D02*
X147200000Y-104470000D01*
X147200000Y-104470000D02*
X147200000Y-103410000D01*
X150108752Y-118575000D02*
X149586248Y-118575000D01*
X150108752Y-119995000D02*
X149586248Y-119995000D01*
X132833000Y-102998500D02*
X132833000Y-103800970D01*
X132833000Y-104416030D02*
X132833000Y-105218500D01*
X137848000Y-102998500D02*
X132833000Y-102998500D01*
X137848000Y-105218500D02*
X132833000Y-105218500D01*
X137848000Y-102998500D02*
X137848000Y-103545029D01*
X137848000Y-104671971D02*
X137848000Y-105218500D01*
X138608000Y-102998500D02*
X139368000Y-102998500D01*
X139368000Y-102998500D02*
X139368000Y-104108500D01*
X119311252Y-115876250D02*
X118788748Y-115876250D01*
X119311252Y-117296250D02*
X118788748Y-117296250D01*
X123868748Y-119995000D02*
X124391252Y-119995000D01*
X123868748Y-118575000D02*
X124391252Y-118575000D01*
X123868748Y-114597500D02*
X124391252Y-114597500D01*
X123868748Y-113177500D02*
X124391252Y-113177500D01*
X123868748Y-117296250D02*
X124391252Y-117296250D01*
X123868748Y-115876250D02*
X124391252Y-115876250D01*
X123868748Y-111898750D02*
X124391252Y-111898750D01*
X123868748Y-110478750D02*
X124391252Y-110478750D01*
X128948748Y-117296250D02*
X129471252Y-117296250D01*
X128948748Y-115876250D02*
X129471252Y-115876250D01*
X128948748Y-119995000D02*
X129471252Y-119995000D01*
X128948748Y-118575000D02*
X129471252Y-118575000D01*
X128948748Y-111898750D02*
X129471252Y-111898750D01*
X128948748Y-110478750D02*
X129471252Y-110478750D01*
X128948748Y-114597500D02*
X129471252Y-114597500D01*
X128948748Y-113177500D02*
X129471252Y-113177500D01*
X119311252Y-107780000D02*
X118788748Y-107780000D01*
X119311252Y-109200000D02*
X118788748Y-109200000D01*
X114231252Y-107780000D02*
X113708748Y-107780000D01*
X114231252Y-109200000D02*
X113708748Y-109200000D01*
X119311252Y-118575000D02*
X118788748Y-118575000D01*
X119311252Y-119995000D02*
X118788748Y-119995000D01*
X119311252Y-113177500D02*
X118788748Y-113177500D01*
X119311252Y-114597500D02*
X118788748Y-114597500D01*
X123868748Y-109200000D02*
X124391252Y-109200000D01*
X123868748Y-107780000D02*
X124391252Y-107780000D01*
X119311252Y-110478750D02*
X118788748Y-110478750D01*
X119311252Y-111898750D02*
X118788748Y-111898750D01*
X150108752Y-110510500D02*
X149586248Y-110510500D01*
X150108752Y-111930500D02*
X149586248Y-111930500D01*
X150108752Y-113114000D02*
X149586248Y-113114000D01*
X150108752Y-114534000D02*
X149586248Y-114534000D01*
X149586248Y-117296250D02*
X150108752Y-117296250D01*
X149586248Y-115876250D02*
X150108752Y-115876250D01*
X113708748Y-111898750D02*
X114231252Y-111898750D01*
X113708748Y-110478750D02*
X114231252Y-110478750D01*
X113708748Y-114597500D02*
X114231252Y-114597500D01*
X113708748Y-113177500D02*
X114231252Y-113177500D01*
X113708748Y-117296250D02*
X114231252Y-117296250D01*
X113708748Y-115876250D02*
X114231252Y-115876250D01*
X113708748Y-119995000D02*
X114231252Y-119995000D01*
X113708748Y-118575000D02*
X114231252Y-118575000D01*
X104210000Y-120210000D02*
X104210000Y-114200000D01*
X111030000Y-117960000D02*
X111030000Y-114200000D01*
X104210000Y-114200000D02*
X105470000Y-114200000D01*
X111030000Y-114200000D02*
X109770000Y-114200000D01*
X147820000Y-122190000D02*
X147820000Y-124190000D01*
X107180000Y-124190000D02*
X107180000Y-122190000D01*
D11*
X144605000Y-107569500D02*
X144605000Y-106294500D01*
X145180000Y-117919500D02*
X145180000Y-117244500D01*
X134830000Y-117919500D02*
X134830000Y-117244500D01*
X134830000Y-107569500D02*
X134830000Y-108244500D01*
X145180000Y-107569500D02*
X145180000Y-108244500D01*
X134830000Y-107569500D02*
X135505000Y-107569500D01*
X134830000Y-117919500D02*
X135505000Y-117919500D01*
X145180000Y-117919500D02*
X144505000Y-117919500D01*
X145180000Y-107569500D02*
X144605000Y-107569500D01*
X110906166Y-104576880D02*
X110906166Y-105291166D01*
X110858547Y-105434023D01*
X110763309Y-105529261D01*
X110620452Y-105576880D01*
X110525214Y-105576880D01*
X111287119Y-104576880D02*
X111906166Y-104576880D01*
X111572833Y-104957833D01*
X111715690Y-104957833D01*
X111810928Y-105005452D01*
X111858547Y-105053071D01*
X111906166Y-105148309D01*
X111906166Y-105386404D01*
X111858547Y-105481642D01*
X111810928Y-105529261D01*
X111715690Y-105576880D01*
X111429976Y-105576880D01*
X111334738Y-105529261D01*
X111287119Y-105481642D01*
X151562095Y-107142161D02*
X151704952Y-107189780D01*
X151943047Y-107189780D01*
X152038285Y-107142161D01*
X152085904Y-107094542D01*
X152133523Y-106999304D01*
X152133523Y-106904066D01*
X152085904Y-106808828D01*
X152038285Y-106761209D01*
X151943047Y-106713590D01*
X151752571Y-106665971D01*
X151657333Y-106618352D01*
X151609714Y-106570733D01*
X151562095Y-106475495D01*
X151562095Y-106380257D01*
X151609714Y-106285019D01*
X151657333Y-106237400D01*
X151752571Y-106189780D01*
X151990666Y-106189780D01*
X152133523Y-106237400D01*
X152514476Y-106285019D02*
X152562095Y-106237400D01*
X152657333Y-106189780D01*
X152895428Y-106189780D01*
X152990666Y-106237400D01*
X153038285Y-106285019D01*
X153085904Y-106380257D01*
X153085904Y-106475495D01*
X153038285Y-106618352D01*
X152466857Y-107189780D01*
X153085904Y-107189780D01*
X151562095Y-109339261D02*
X151704952Y-109386880D01*
X151943047Y-109386880D01*
X152038285Y-109339261D01*
X152085904Y-109291642D01*
X152133523Y-109196404D01*
X152133523Y-109101166D01*
X152085904Y-109005928D01*
X152038285Y-108958309D01*
X151943047Y-108910690D01*
X151752571Y-108863071D01*
X151657333Y-108815452D01*
X151609714Y-108767833D01*
X151562095Y-108672595D01*
X151562095Y-108577357D01*
X151609714Y-108482119D01*
X151657333Y-108434500D01*
X151752571Y-108386880D01*
X151990666Y-108386880D01*
X152133523Y-108434500D01*
X153085904Y-109386880D02*
X152514476Y-109386880D01*
X152800190Y-109386880D02*
X152800190Y-108386880D01*
X152704952Y-108529738D01*
X152609714Y-108624976D01*
X152514476Y-108672595D01*
X143197542Y-102287580D02*
X142864209Y-101811390D01*
X142626114Y-102287580D02*
X142626114Y-101287580D01*
X143007066Y-101287580D01*
X143102304Y-101335200D01*
X143149923Y-101382819D01*
X143197542Y-101478057D01*
X143197542Y-101620914D01*
X143149923Y-101716152D01*
X143102304Y-101763771D01*
X143007066Y-101811390D01*
X142626114Y-101811390D01*
X144149923Y-102287580D02*
X143578495Y-102287580D01*
X143864209Y-102287580D02*
X143864209Y-101287580D01*
X143768971Y-101430438D01*
X143673733Y-101525676D01*
X143578495Y-101573295D01*
X145102304Y-102287580D02*
X144530876Y-102287580D01*
X144816590Y-102287580D02*
X144816590Y-101287580D01*
X144721352Y-101430438D01*
X144626114Y-101525676D01*
X144530876Y-101573295D01*
X151838266Y-102862380D02*
X151838266Y-103576666D01*
X151790647Y-103719523D01*
X151695409Y-103814761D01*
X151552552Y-103862380D01*
X151457314Y-103862380D01*
X152743028Y-103195714D02*
X152743028Y-103862380D01*
X152504933Y-102814761D02*
X152266838Y-103529047D01*
X152885885Y-103529047D01*
X149693533Y-121159780D02*
X149360200Y-120683590D01*
X149122104Y-121159780D02*
X149122104Y-120159780D01*
X149503057Y-120159780D01*
X149598295Y-120207400D01*
X149645914Y-120255019D01*
X149693533Y-120350257D01*
X149693533Y-120493114D01*
X149645914Y-120588352D01*
X149598295Y-120635971D01*
X149503057Y-120683590D01*
X149122104Y-120683590D01*
X150645914Y-121159780D02*
X150074485Y-121159780D01*
X150360200Y-121159780D02*
X150360200Y-120159780D01*
X150264961Y-120302638D01*
X150169723Y-120397876D01*
X150074485Y-120445495D01*
X135353666Y-101719380D02*
X135353666Y-102433666D01*
X135306047Y-102576523D01*
X135210809Y-102671761D01*
X135067952Y-102719380D01*
X134972714Y-102719380D01*
X135782238Y-101814619D02*
X135829857Y-101767000D01*
X135925095Y-101719380D01*
X136163190Y-101719380D01*
X136258428Y-101767000D01*
X136306047Y-101814619D01*
X136353666Y-101909857D01*
X136353666Y-102005095D01*
X136306047Y-102147952D01*
X135734619Y-102719380D01*
X136353666Y-102719380D01*
X118432542Y-115749580D02*
X118099209Y-115273390D01*
X117861114Y-115749580D02*
X117861114Y-114749580D01*
X118242066Y-114749580D01*
X118337304Y-114797200D01*
X118384923Y-114844819D01*
X118432542Y-114940057D01*
X118432542Y-115082914D01*
X118384923Y-115178152D01*
X118337304Y-115225771D01*
X118242066Y-115273390D01*
X117861114Y-115273390D01*
X119384923Y-115749580D02*
X118813495Y-115749580D01*
X119099209Y-115749580D02*
X119099209Y-114749580D01*
X119003971Y-114892438D01*
X118908733Y-114987676D01*
X118813495Y-115035295D01*
X120003971Y-114749580D02*
X120099209Y-114749580D01*
X120194447Y-114797200D01*
X120242066Y-114844819D01*
X120289685Y-114940057D01*
X120337304Y-115130533D01*
X120337304Y-115368628D01*
X120289685Y-115559104D01*
X120242066Y-115654342D01*
X120194447Y-115701961D01*
X120099209Y-115749580D01*
X120003971Y-115749580D01*
X119908733Y-115701961D01*
X119861114Y-115654342D01*
X119813495Y-115559104D01*
X119765876Y-115368628D01*
X119765876Y-115130533D01*
X119813495Y-114940057D01*
X119861114Y-114844819D01*
X119908733Y-114797200D01*
X120003971Y-114749580D01*
X123963333Y-118416580D02*
X123630000Y-117940390D01*
X123391904Y-118416580D02*
X123391904Y-117416580D01*
X123772857Y-117416580D01*
X123868095Y-117464200D01*
X123915714Y-117511819D01*
X123963333Y-117607057D01*
X123963333Y-117749914D01*
X123915714Y-117845152D01*
X123868095Y-117892771D01*
X123772857Y-117940390D01*
X123391904Y-117940390D01*
X124439523Y-118416580D02*
X124630000Y-118416580D01*
X124725238Y-118368961D01*
X124772857Y-118321342D01*
X124868095Y-118178485D01*
X124915714Y-117988009D01*
X124915714Y-117607057D01*
X124868095Y-117511819D01*
X124820476Y-117464200D01*
X124725238Y-117416580D01*
X124534761Y-117416580D01*
X124439523Y-117464200D01*
X124391904Y-117511819D01*
X124344285Y-117607057D01*
X124344285Y-117845152D01*
X124391904Y-117940390D01*
X124439523Y-117988009D01*
X124534761Y-118035628D01*
X124725238Y-118035628D01*
X124820476Y-117988009D01*
X124868095Y-117940390D01*
X124915714Y-117845152D01*
X123988733Y-113057180D02*
X123655400Y-112580990D01*
X123417304Y-113057180D02*
X123417304Y-112057180D01*
X123798257Y-112057180D01*
X123893495Y-112104800D01*
X123941114Y-112152419D01*
X123988733Y-112247657D01*
X123988733Y-112390514D01*
X123941114Y-112485752D01*
X123893495Y-112533371D01*
X123798257Y-112580990D01*
X123417304Y-112580990D01*
X124560161Y-112485752D02*
X124464923Y-112438133D01*
X124417304Y-112390514D01*
X124369685Y-112295276D01*
X124369685Y-112247657D01*
X124417304Y-112152419D01*
X124464923Y-112104800D01*
X124560161Y-112057180D01*
X124750638Y-112057180D01*
X124845876Y-112104800D01*
X124893495Y-112152419D01*
X124941114Y-112247657D01*
X124941114Y-112295276D01*
X124893495Y-112390514D01*
X124845876Y-112438133D01*
X124750638Y-112485752D01*
X124560161Y-112485752D01*
X124464923Y-112533371D01*
X124417304Y-112580990D01*
X124369685Y-112676228D01*
X124369685Y-112866704D01*
X124417304Y-112961942D01*
X124464923Y-113009561D01*
X124560161Y-113057180D01*
X124750638Y-113057180D01*
X124845876Y-113009561D01*
X124893495Y-112961942D01*
X124941114Y-112866704D01*
X124941114Y-112676228D01*
X124893495Y-112580990D01*
X124845876Y-112533371D01*
X124750638Y-112485752D01*
X123988733Y-115724180D02*
X123655400Y-115247990D01*
X123417304Y-115724180D02*
X123417304Y-114724180D01*
X123798257Y-114724180D01*
X123893495Y-114771800D01*
X123941114Y-114819419D01*
X123988733Y-114914657D01*
X123988733Y-115057514D01*
X123941114Y-115152752D01*
X123893495Y-115200371D01*
X123798257Y-115247990D01*
X123417304Y-115247990D01*
X124322066Y-114724180D02*
X124988733Y-114724180D01*
X124560161Y-115724180D01*
X123988733Y-110313980D02*
X123655400Y-109837790D01*
X123417304Y-110313980D02*
X123417304Y-109313980D01*
X123798257Y-109313980D01*
X123893495Y-109361600D01*
X123941114Y-109409219D01*
X123988733Y-109504457D01*
X123988733Y-109647314D01*
X123941114Y-109742552D01*
X123893495Y-109790171D01*
X123798257Y-109837790D01*
X123417304Y-109837790D01*
X124845876Y-109313980D02*
X124655400Y-109313980D01*
X124560161Y-109361600D01*
X124512542Y-109409219D01*
X124417304Y-109552076D01*
X124369685Y-109742552D01*
X124369685Y-110123504D01*
X124417304Y-110218742D01*
X124464923Y-110266361D01*
X124560161Y-110313980D01*
X124750638Y-110313980D01*
X124845876Y-110266361D01*
X124893495Y-110218742D01*
X124941114Y-110123504D01*
X124941114Y-109885409D01*
X124893495Y-109790171D01*
X124845876Y-109742552D01*
X124750638Y-109694933D01*
X124560161Y-109694933D01*
X124464923Y-109742552D01*
X124417304Y-109790171D01*
X124369685Y-109885409D01*
X129043333Y-115724180D02*
X128710000Y-115247990D01*
X128471904Y-115724180D02*
X128471904Y-114724180D01*
X128852857Y-114724180D01*
X128948095Y-114771800D01*
X128995714Y-114819419D01*
X129043333Y-114914657D01*
X129043333Y-115057514D01*
X128995714Y-115152752D01*
X128948095Y-115200371D01*
X128852857Y-115247990D01*
X128471904Y-115247990D01*
X129948095Y-114724180D02*
X129471904Y-114724180D01*
X129424285Y-115200371D01*
X129471904Y-115152752D01*
X129567142Y-115105133D01*
X129805238Y-115105133D01*
X129900476Y-115152752D01*
X129948095Y-115200371D01*
X129995714Y-115295609D01*
X129995714Y-115533704D01*
X129948095Y-115628942D01*
X129900476Y-115676561D01*
X129805238Y-115724180D01*
X129567142Y-115724180D01*
X129471904Y-115676561D01*
X129424285Y-115628942D01*
X129017933Y-118441980D02*
X128684600Y-117965790D01*
X128446504Y-118441980D02*
X128446504Y-117441980D01*
X128827457Y-117441980D01*
X128922695Y-117489600D01*
X128970314Y-117537219D01*
X129017933Y-117632457D01*
X129017933Y-117775314D01*
X128970314Y-117870552D01*
X128922695Y-117918171D01*
X128827457Y-117965790D01*
X128446504Y-117965790D01*
X129875076Y-117775314D02*
X129875076Y-118441980D01*
X129636980Y-117394361D02*
X129398885Y-118108647D01*
X130017933Y-118108647D01*
X129043333Y-110313980D02*
X128710000Y-109837790D01*
X128471904Y-110313980D02*
X128471904Y-109313980D01*
X128852857Y-109313980D01*
X128948095Y-109361600D01*
X128995714Y-109409219D01*
X129043333Y-109504457D01*
X129043333Y-109647314D01*
X128995714Y-109742552D01*
X128948095Y-109790171D01*
X128852857Y-109837790D01*
X128471904Y-109837790D01*
X129376666Y-109313980D02*
X129995714Y-109313980D01*
X129662380Y-109694933D01*
X129805238Y-109694933D01*
X129900476Y-109742552D01*
X129948095Y-109790171D01*
X129995714Y-109885409D01*
X129995714Y-110123504D01*
X129948095Y-110218742D01*
X129900476Y-110266361D01*
X129805238Y-110313980D01*
X129519523Y-110313980D01*
X129424285Y-110266361D01*
X129376666Y-110218742D01*
X129043333Y-113031780D02*
X128710000Y-112555590D01*
X128471904Y-113031780D02*
X128471904Y-112031780D01*
X128852857Y-112031780D01*
X128948095Y-112079400D01*
X128995714Y-112127019D01*
X129043333Y-112222257D01*
X129043333Y-112365114D01*
X128995714Y-112460352D01*
X128948095Y-112507971D01*
X128852857Y-112555590D01*
X128471904Y-112555590D01*
X129424285Y-112127019D02*
X129471904Y-112079400D01*
X129567142Y-112031780D01*
X129805238Y-112031780D01*
X129900476Y-112079400D01*
X129948095Y-112127019D01*
X129995714Y-112222257D01*
X129995714Y-112317495D01*
X129948095Y-112460352D01*
X129376666Y-113031780D01*
X129995714Y-113031780D01*
X118407142Y-107500942D02*
X118359523Y-107548561D01*
X118216666Y-107596180D01*
X118121428Y-107596180D01*
X117978571Y-107548561D01*
X117883333Y-107453323D01*
X117835714Y-107358085D01*
X117788095Y-107167609D01*
X117788095Y-107024752D01*
X117835714Y-106834276D01*
X117883333Y-106739038D01*
X117978571Y-106643800D01*
X118121428Y-106596180D01*
X118216666Y-106596180D01*
X118359523Y-106643800D01*
X118407142Y-106691419D01*
X119359523Y-107596180D02*
X118788095Y-107596180D01*
X119073809Y-107596180D02*
X119073809Y-106596180D01*
X118978571Y-106739038D01*
X118883333Y-106834276D01*
X118788095Y-106881895D01*
X119692857Y-106596180D02*
X120311904Y-106596180D01*
X119978571Y-106977133D01*
X120121428Y-106977133D01*
X120216666Y-107024752D01*
X120264285Y-107072371D01*
X120311904Y-107167609D01*
X120311904Y-107405704D01*
X120264285Y-107500942D01*
X120216666Y-107548561D01*
X120121428Y-107596180D01*
X119835714Y-107596180D01*
X119740476Y-107548561D01*
X119692857Y-107500942D01*
X113327142Y-107526342D02*
X113279523Y-107573961D01*
X113136666Y-107621580D01*
X113041428Y-107621580D01*
X112898571Y-107573961D01*
X112803333Y-107478723D01*
X112755714Y-107383485D01*
X112708095Y-107193009D01*
X112708095Y-107050152D01*
X112755714Y-106859676D01*
X112803333Y-106764438D01*
X112898571Y-106669200D01*
X113041428Y-106621580D01*
X113136666Y-106621580D01*
X113279523Y-106669200D01*
X113327142Y-106716819D01*
X114279523Y-107621580D02*
X113708095Y-107621580D01*
X113993809Y-107621580D02*
X113993809Y-106621580D01*
X113898571Y-106764438D01*
X113803333Y-106859676D01*
X113708095Y-106907295D01*
X114660476Y-106716819D02*
X114708095Y-106669200D01*
X114803333Y-106621580D01*
X115041428Y-106621580D01*
X115136666Y-106669200D01*
X115184285Y-106716819D01*
X115231904Y-106812057D01*
X115231904Y-106907295D01*
X115184285Y-107050152D01*
X114612857Y-107621580D01*
X115231904Y-107621580D01*
X118457942Y-118321342D02*
X118410323Y-118368961D01*
X118267466Y-118416580D01*
X118172228Y-118416580D01*
X118029371Y-118368961D01*
X117934133Y-118273723D01*
X117886514Y-118178485D01*
X117838895Y-117988009D01*
X117838895Y-117845152D01*
X117886514Y-117654676D01*
X117934133Y-117559438D01*
X118029371Y-117464200D01*
X118172228Y-117416580D01*
X118267466Y-117416580D01*
X118410323Y-117464200D01*
X118457942Y-117511819D01*
X119410323Y-118416580D02*
X118838895Y-118416580D01*
X119124609Y-118416580D02*
X119124609Y-117416580D01*
X119029371Y-117559438D01*
X118934133Y-117654676D01*
X118838895Y-117702295D01*
X120362704Y-118416580D02*
X119791276Y-118416580D01*
X120076990Y-118416580D02*
X120076990Y-117416580D01*
X119981752Y-117559438D01*
X119886514Y-117654676D01*
X119791276Y-117702295D01*
X118407142Y-112961942D02*
X118359523Y-113009561D01*
X118216666Y-113057180D01*
X118121428Y-113057180D01*
X117978571Y-113009561D01*
X117883333Y-112914323D01*
X117835714Y-112819085D01*
X117788095Y-112628609D01*
X117788095Y-112485752D01*
X117835714Y-112295276D01*
X117883333Y-112200038D01*
X117978571Y-112104800D01*
X118121428Y-112057180D01*
X118216666Y-112057180D01*
X118359523Y-112104800D01*
X118407142Y-112152419D01*
X119359523Y-113057180D02*
X118788095Y-113057180D01*
X119073809Y-113057180D02*
X119073809Y-112057180D01*
X118978571Y-112200038D01*
X118883333Y-112295276D01*
X118788095Y-112342895D01*
X119978571Y-112057180D02*
X120073809Y-112057180D01*
X120169047Y-112104800D01*
X120216666Y-112152419D01*
X120264285Y-112247657D01*
X120311904Y-112438133D01*
X120311904Y-112676228D01*
X120264285Y-112866704D01*
X120216666Y-112961942D01*
X120169047Y-113009561D01*
X120073809Y-113057180D01*
X119978571Y-113057180D01*
X119883333Y-113009561D01*
X119835714Y-112961942D01*
X119788095Y-112866704D01*
X119740476Y-112676228D01*
X119740476Y-112438133D01*
X119788095Y-112247657D01*
X119835714Y-112152419D01*
X119883333Y-112104800D01*
X119978571Y-112057180D01*
X124014133Y-107450142D02*
X123966514Y-107497761D01*
X123823657Y-107545380D01*
X123728419Y-107545380D01*
X123585561Y-107497761D01*
X123490323Y-107402523D01*
X123442704Y-107307285D01*
X123395085Y-107116809D01*
X123395085Y-106973952D01*
X123442704Y-106783476D01*
X123490323Y-106688238D01*
X123585561Y-106593000D01*
X123728419Y-106545380D01*
X123823657Y-106545380D01*
X123966514Y-106593000D01*
X124014133Y-106640619D01*
X124490323Y-107545380D02*
X124680800Y-107545380D01*
X124776038Y-107497761D01*
X124823657Y-107450142D01*
X124918895Y-107307285D01*
X124966514Y-107116809D01*
X124966514Y-106735857D01*
X124918895Y-106640619D01*
X124871276Y-106593000D01*
X124776038Y-106545380D01*
X124585561Y-106545380D01*
X124490323Y-106593000D01*
X124442704Y-106640619D01*
X124395085Y-106735857D01*
X124395085Y-106973952D01*
X124442704Y-107069190D01*
X124490323Y-107116809D01*
X124585561Y-107164428D01*
X124776038Y-107164428D01*
X124871276Y-107116809D01*
X124918895Y-107069190D01*
X124966514Y-106973952D01*
X118883333Y-110244142D02*
X118835714Y-110291761D01*
X118692857Y-110339380D01*
X118597619Y-110339380D01*
X118454761Y-110291761D01*
X118359523Y-110196523D01*
X118311904Y-110101285D01*
X118264285Y-109910809D01*
X118264285Y-109767952D01*
X118311904Y-109577476D01*
X118359523Y-109482238D01*
X118454761Y-109387000D01*
X118597619Y-109339380D01*
X118692857Y-109339380D01*
X118835714Y-109387000D01*
X118883333Y-109434619D01*
X119454761Y-109767952D02*
X119359523Y-109720333D01*
X119311904Y-109672714D01*
X119264285Y-109577476D01*
X119264285Y-109529857D01*
X119311904Y-109434619D01*
X119359523Y-109387000D01*
X119454761Y-109339380D01*
X119645238Y-109339380D01*
X119740476Y-109387000D01*
X119788095Y-109434619D01*
X119835714Y-109529857D01*
X119835714Y-109577476D01*
X119788095Y-109672714D01*
X119740476Y-109720333D01*
X119645238Y-109767952D01*
X119454761Y-109767952D01*
X119359523Y-109815571D01*
X119311904Y-109863190D01*
X119264285Y-109958428D01*
X119264285Y-110148904D01*
X119311904Y-110244142D01*
X119359523Y-110291761D01*
X119454761Y-110339380D01*
X119645238Y-110339380D01*
X119740476Y-110291761D01*
X119788095Y-110244142D01*
X119835714Y-110148904D01*
X119835714Y-109958428D01*
X119788095Y-109863190D01*
X119740476Y-109815571D01*
X119645238Y-109767952D01*
X149693533Y-112911142D02*
X149645914Y-112958761D01*
X149503057Y-113006380D01*
X149407819Y-113006380D01*
X149264961Y-112958761D01*
X149169723Y-112863523D01*
X149122104Y-112768285D01*
X149074485Y-112577809D01*
X149074485Y-112434952D01*
X149122104Y-112244476D01*
X149169723Y-112149238D01*
X149264961Y-112054000D01*
X149407819Y-112006380D01*
X149503057Y-112006380D01*
X149645914Y-112054000D01*
X149693533Y-112101619D01*
X150026866Y-112006380D02*
X150693533Y-112006380D01*
X150264961Y-113006380D01*
X149693533Y-115603542D02*
X149645914Y-115651161D01*
X149503057Y-115698780D01*
X149407819Y-115698780D01*
X149264961Y-115651161D01*
X149169723Y-115555923D01*
X149122104Y-115460685D01*
X149074485Y-115270209D01*
X149074485Y-115127352D01*
X149122104Y-114936876D01*
X149169723Y-114841638D01*
X149264961Y-114746400D01*
X149407819Y-114698780D01*
X149503057Y-114698780D01*
X149645914Y-114746400D01*
X149693533Y-114794019D01*
X150550676Y-114698780D02*
X150360200Y-114698780D01*
X150264961Y-114746400D01*
X150217342Y-114794019D01*
X150122104Y-114936876D01*
X150074485Y-115127352D01*
X150074485Y-115508304D01*
X150122104Y-115603542D01*
X150169723Y-115651161D01*
X150264961Y-115698780D01*
X150455438Y-115698780D01*
X150550676Y-115651161D01*
X150598295Y-115603542D01*
X150645914Y-115508304D01*
X150645914Y-115270209D01*
X150598295Y-115174971D01*
X150550676Y-115127352D01*
X150455438Y-115079733D01*
X150264961Y-115079733D01*
X150169723Y-115127352D01*
X150122104Y-115174971D01*
X150074485Y-115270209D01*
X149668133Y-118321342D02*
X149620514Y-118368961D01*
X149477657Y-118416580D01*
X149382419Y-118416580D01*
X149239561Y-118368961D01*
X149144323Y-118273723D01*
X149096704Y-118178485D01*
X149049085Y-117988009D01*
X149049085Y-117845152D01*
X149096704Y-117654676D01*
X149144323Y-117559438D01*
X149239561Y-117464200D01*
X149382419Y-117416580D01*
X149477657Y-117416580D01*
X149620514Y-117464200D01*
X149668133Y-117511819D01*
X150572895Y-117416580D02*
X150096704Y-117416580D01*
X150049085Y-117892771D01*
X150096704Y-117845152D01*
X150191942Y-117797533D01*
X150430038Y-117797533D01*
X150525276Y-117845152D01*
X150572895Y-117892771D01*
X150620514Y-117988009D01*
X150620514Y-118226104D01*
X150572895Y-118321342D01*
X150525276Y-118368961D01*
X150430038Y-118416580D01*
X150191942Y-118416580D01*
X150096704Y-118368961D01*
X150049085Y-118321342D01*
X113803333Y-110244142D02*
X113755714Y-110291761D01*
X113612857Y-110339380D01*
X113517619Y-110339380D01*
X113374761Y-110291761D01*
X113279523Y-110196523D01*
X113231904Y-110101285D01*
X113184285Y-109910809D01*
X113184285Y-109767952D01*
X113231904Y-109577476D01*
X113279523Y-109482238D01*
X113374761Y-109387000D01*
X113517619Y-109339380D01*
X113612857Y-109339380D01*
X113755714Y-109387000D01*
X113803333Y-109434619D01*
X114660476Y-109672714D02*
X114660476Y-110339380D01*
X114422380Y-109291761D02*
X114184285Y-110006047D01*
X114803333Y-110006047D01*
X113828733Y-112936542D02*
X113781114Y-112984161D01*
X113638257Y-113031780D01*
X113543019Y-113031780D01*
X113400161Y-112984161D01*
X113304923Y-112888923D01*
X113257304Y-112793685D01*
X113209685Y-112603209D01*
X113209685Y-112460352D01*
X113257304Y-112269876D01*
X113304923Y-112174638D01*
X113400161Y-112079400D01*
X113543019Y-112031780D01*
X113638257Y-112031780D01*
X113781114Y-112079400D01*
X113828733Y-112127019D01*
X114162066Y-112031780D02*
X114781114Y-112031780D01*
X114447780Y-112412733D01*
X114590638Y-112412733D01*
X114685876Y-112460352D01*
X114733495Y-112507971D01*
X114781114Y-112603209D01*
X114781114Y-112841304D01*
X114733495Y-112936542D01*
X114685876Y-112984161D01*
X114590638Y-113031780D01*
X114304923Y-113031780D01*
X114209685Y-112984161D01*
X114162066Y-112936542D01*
X113803333Y-115603542D02*
X113755714Y-115651161D01*
X113612857Y-115698780D01*
X113517619Y-115698780D01*
X113374761Y-115651161D01*
X113279523Y-115555923D01*
X113231904Y-115460685D01*
X113184285Y-115270209D01*
X113184285Y-115127352D01*
X113231904Y-114936876D01*
X113279523Y-114841638D01*
X113374761Y-114746400D01*
X113517619Y-114698780D01*
X113612857Y-114698780D01*
X113755714Y-114746400D01*
X113803333Y-114794019D01*
X114184285Y-114794019D02*
X114231904Y-114746400D01*
X114327142Y-114698780D01*
X114565238Y-114698780D01*
X114660476Y-114746400D01*
X114708095Y-114794019D01*
X114755714Y-114889257D01*
X114755714Y-114984495D01*
X114708095Y-115127352D01*
X114136666Y-115698780D01*
X114755714Y-115698780D01*
X113803333Y-118346742D02*
X113755714Y-118394361D01*
X113612857Y-118441980D01*
X113517619Y-118441980D01*
X113374761Y-118394361D01*
X113279523Y-118299123D01*
X113231904Y-118203885D01*
X113184285Y-118013409D01*
X113184285Y-117870552D01*
X113231904Y-117680076D01*
X113279523Y-117584838D01*
X113374761Y-117489600D01*
X113517619Y-117441980D01*
X113612857Y-117441980D01*
X113755714Y-117489600D01*
X113803333Y-117537219D01*
X114755714Y-118441980D02*
X114184285Y-118441980D01*
X114470000Y-118441980D02*
X114470000Y-117441980D01*
X114374761Y-117584838D01*
X114279523Y-117680076D01*
X114184285Y-117727695D01*
X104318095Y-120959880D02*
X104318095Y-121769404D01*
X104365714Y-121864642D01*
X104413333Y-121912261D01*
X104508571Y-121959880D01*
X104699047Y-121959880D01*
X104794285Y-121912261D01*
X104841904Y-121864642D01*
X104889523Y-121769404D01*
X104889523Y-120959880D01*
X105889523Y-121959880D02*
X105318095Y-121959880D01*
X105603809Y-121959880D02*
X105603809Y-120959880D01*
X105508571Y-121102738D01*
X105413333Y-121197976D01*
X105318095Y-121245595D01*
X148561666Y-122547380D02*
X148561666Y-123261666D01*
X148514047Y-123404523D01*
X148418809Y-123499761D01*
X148275952Y-123547380D01*
X148180714Y-123547380D01*
X149561666Y-123547380D02*
X148990238Y-123547380D01*
X149275952Y-123547380D02*
X149275952Y-122547380D01*
X149180714Y-122690238D01*
X149085476Y-122785476D01*
X148990238Y-122833095D01*
X144958095Y-118292880D02*
X144958095Y-119102404D01*
X145005714Y-119197642D01*
X145053333Y-119245261D01*
X145148571Y-119292880D01*
X145339047Y-119292880D01*
X145434285Y-119245261D01*
X145481904Y-119197642D01*
X145529523Y-119102404D01*
X145529523Y-118292880D01*
X145958095Y-118388119D02*
X146005714Y-118340500D01*
X146100952Y-118292880D01*
X146339047Y-118292880D01*
X146434285Y-118340500D01*
X146481904Y-118388119D01*
X146529523Y-118483357D01*
X146529523Y-118578595D01*
X146481904Y-118721452D01*
X145910476Y-119292880D01*
X146529523Y-119292880D01*
M02*
