M48
; DRILL file {KiCad (5.1.6)-1} date 10/07/20 22:11:16
; FORMAT={3:3/ absolute / metric / suppress leading zeros}
; #@! TF.CreationDate,2020-10-07T22:11:16+02:00
; #@! TF.GenerationSoftware,Kicad,Pcbnew,(5.1.6)-1
; #@! TF.FileFunction,Plated,1,2,PTH
FMAT,2
METRIC,TZ
T1C0.300
T2C0.400
T3C0.650
T4C0.800
%
G90
G05
T1
X103175Y-118015
X103175Y-119285
X103175Y-120555
X103810Y-117380
X103810Y-118650
X103810Y-119920
X103810Y-121190
X104445Y-116745
X105017Y-121190
X105080Y-117380
X105715Y-116745
X116129Y-111208
X116129Y-113900
X116129Y-116586
X116129Y-119285
X116828Y-111189
X116828Y-113900
X116828Y-116586
X116828Y-119285
X119482Y-106483
X120066Y-117939
X120244Y-103029
X120472Y-106077
X121285Y-113888
X123266Y-106052
X123546Y-109836
X123546Y-112630
X123546Y-118015
X124765Y-106052
X125248Y-103029
X126035Y-106052
X126289Y-108490
X126289Y-111189
X126289Y-113888
X126289Y-116586
X126289Y-119285
X126306Y-121190
X127000Y-106052
X127102Y-120555
X127750Y-103029
X127813Y-115297
X127898Y-121190
X128694Y-120618
X131433Y-111189
X131433Y-113888
X131877Y-118650
X131878Y-120873
X132673Y-120238
X133469Y-120873
X134265Y-120238
X135061Y-120873
X135857Y-120238
X136195Y-109760
X136513Y-111189
X136513Y-113888
X136653Y-120873
X136805Y-108490
X137605Y-109125
X138245Y-120238
X138405Y-109760
X139041Y-120873
X139205Y-109125
X139837Y-120238
X140005Y-109760
X140633Y-120873
X140805Y-109125
X141605Y-109760
X142405Y-109125
X143205Y-109760
X143498Y-111144
X143498Y-112744
X144005Y-108490
X144196Y-110344
X144196Y-111944
X144196Y-115144
X147689Y-111221
X147689Y-113824
X152006Y-116618
T2
X107620Y-102775
X107620Y-104045
X107620Y-105315
X126949Y-101505
X138100Y-101505
X139370Y-101505
X140640Y-101505
T3
X133528Y-104109
X134798Y-104109
X136068Y-104109
X137338Y-104109
X138608Y-104109
T4
X148324Y-106712
X150324Y-106712
X148356Y-108871
X150356Y-108871
X148260Y-103410
X150260Y-103410
T0
M30
