G04 #@! TF.GenerationSoftware,KiCad,Pcbnew,(5.1.6)-1*
G04 #@! TF.CreationDate,2020-10-07T22:12:15+02:00*
G04 #@! TF.ProjectId,PeugeoutTypeCDisplayHack,50657567-656f-4757-9454-797065434469,1*
G04 #@! TF.SameCoordinates,Original*
G04 #@! TF.FileFunction,Copper,L2,Bot*
G04 #@! TF.FilePolarity,Positive*
%FSLAX46Y46*%
G04 Gerber Fmt 4.6, Leading zero omitted, Abs format (unit mm)*
G04 Created by KiCad (PCBNEW (5.1.6)-1) date 2020-10-07 22:12:15*
%MOMM*%
%LPD*%
G01*
G04 APERTURE LIST*
G04 #@! TA.AperFunction,ComponentPad*
%ADD10R,1.350000X1.350000*%
G04 #@! TD*
G04 #@! TA.AperFunction,ComponentPad*
%ADD11O,1.350000X1.350000*%
G04 #@! TD*
G04 #@! TA.AperFunction,ComponentPad*
%ADD12R,1.000000X1.000000*%
G04 #@! TD*
G04 #@! TA.AperFunction,ComponentPad*
%ADD13O,1.000000X1.000000*%
G04 #@! TD*
G04 #@! TA.AperFunction,ViaPad*
%ADD14C,0.800000*%
G04 #@! TD*
G04 #@! TA.AperFunction,ViaPad*
%ADD15C,0.650000*%
G04 #@! TD*
G04 #@! TA.AperFunction,Conductor*
%ADD16C,0.500000*%
G04 #@! TD*
G04 #@! TA.AperFunction,Conductor*
%ADD17C,0.250000*%
G04 #@! TD*
G04 #@! TA.AperFunction,Conductor*
%ADD18C,0.254000*%
G04 #@! TD*
G04 APERTURE END LIST*
D10*
X148323500Y-106712000D03*
D11*
X150323500Y-106712000D03*
D10*
X148355500Y-108871000D03*
D11*
X150355500Y-108871000D03*
D10*
X148260000Y-103410000D03*
D11*
X150260000Y-103410000D03*
D12*
X138608000Y-104108500D03*
D13*
X137338000Y-104108500D03*
X136068000Y-104108500D03*
X134798000Y-104108500D03*
X133528000Y-104108500D03*
D14*
X140640000Y-101505000D03*
X139370000Y-101505000D03*
X138100000Y-101505000D03*
X107620000Y-105315000D03*
X107620000Y-102775000D03*
X107620000Y-104045000D03*
X126949400Y-101505000D03*
D15*
X120066000Y-117938800D03*
X119481800Y-106483400D03*
X131877000Y-118650000D03*
X137605000Y-109125000D03*
X131877558Y-120872500D03*
X138405000Y-109760000D03*
X132673476Y-120237500D03*
X139205000Y-109125000D03*
X133469394Y-120872500D03*
X140005000Y-109760000D03*
X134265312Y-120237500D03*
X140805000Y-109125000D03*
X135061230Y-120872500D03*
X141605000Y-109760000D03*
X135857148Y-120237500D03*
X142405000Y-109125000D03*
X136653066Y-120872500D03*
X143205000Y-109760000D03*
X138244902Y-120237500D03*
X144196000Y-110344500D03*
X139040820Y-120872500D03*
X143497500Y-111144500D03*
X139836738Y-120237500D03*
X144196000Y-111944500D03*
X140632656Y-120872500D03*
X143497500Y-112744500D03*
X127813000Y-115297200D03*
X127000200Y-106051600D03*
X123545800Y-118015000D03*
X126035000Y-106051600D03*
X123545800Y-112630200D03*
X124765000Y-106051600D03*
X123545800Y-109836200D03*
X123266400Y-106051600D03*
X121285200Y-113887500D03*
X120472400Y-106077000D03*
X131432500Y-113887500D03*
X136512500Y-113887500D03*
X131432500Y-111188750D03*
X136512500Y-111188750D03*
X144196000Y-115144500D03*
X144005000Y-108490000D03*
X136805000Y-108490000D03*
X125247600Y-103029000D03*
X120243800Y-103029000D03*
X127750000Y-103029000D03*
X126289000Y-111188750D03*
X126289000Y-113887500D03*
X126289000Y-116586250D03*
X126289000Y-119285000D03*
X127102050Y-120555000D03*
X127897968Y-121190000D03*
X128693886Y-120618500D03*
X126306132Y-121190000D03*
X105080000Y-117380000D03*
X103810000Y-117380000D03*
X103810000Y-118650000D03*
X103810000Y-119920000D03*
X105016500Y-121190000D03*
X103810000Y-121190000D03*
X104445000Y-116745000D03*
X103175000Y-118015000D03*
X103175000Y-119285000D03*
X103175000Y-120555000D03*
X105715000Y-116745000D03*
X116827500Y-113900200D03*
X116827500Y-111188750D03*
X126289000Y-108490000D03*
X116827500Y-116586250D03*
X116129000Y-116586250D03*
X116129000Y-119285000D03*
X116827500Y-119285000D03*
X116129000Y-111207800D03*
X116129000Y-113900200D03*
X147688500Y-111220500D03*
X147688500Y-113824000D03*
X152006500Y-116618000D03*
X136195000Y-109760000D03*
D16*
X140640000Y-101505000D02*
X108191500Y-101505000D01*
X107620000Y-102076500D02*
X107620000Y-105315000D01*
X108191500Y-101505000D02*
X107620000Y-102076500D01*
D17*
X119481800Y-117354600D02*
X120066000Y-117938800D01*
X119481800Y-106483400D02*
X119481800Y-117354600D01*
X137605000Y-109125000D02*
X137605000Y-110903542D01*
X137605000Y-110903542D02*
X137199980Y-111308562D01*
X137199980Y-111308562D02*
X137199980Y-114402290D01*
X132952270Y-118650000D02*
X131877000Y-118650000D01*
X137199980Y-114402290D02*
X132952270Y-118650000D01*
X131877558Y-119918032D02*
X131877558Y-120872500D01*
X132670045Y-119125545D02*
X131877558Y-119918032D01*
X138405000Y-109760000D02*
X138405000Y-110739952D01*
X138405000Y-110739952D02*
X137649990Y-111494962D01*
X137649990Y-111494962D02*
X137649990Y-114588690D01*
X137649990Y-114588690D02*
X133113135Y-119125545D01*
X133113135Y-119125545D02*
X132670045Y-119125545D01*
X138100000Y-114775090D02*
X138100000Y-111681362D01*
X132673476Y-120237500D02*
X132673476Y-120201614D01*
X139205000Y-110576362D02*
X139205000Y-109125000D01*
X138100000Y-111681362D02*
X139205000Y-110576362D01*
X132673476Y-120201614D02*
X138100000Y-114775090D01*
X133469394Y-120042106D02*
X133469394Y-120872500D01*
X138550010Y-114961490D02*
X133469394Y-120042106D01*
X138550010Y-111867762D02*
X138550010Y-114961490D01*
X140005000Y-110412772D02*
X138550010Y-111867762D01*
X140005000Y-109760000D02*
X140005000Y-110412772D01*
X140805000Y-110249182D02*
X140805000Y-109125000D01*
X139000020Y-115147890D02*
X139000020Y-112054162D01*
X134265312Y-119882598D02*
X139000020Y-115147890D01*
X139000020Y-112054162D02*
X140805000Y-110249182D01*
X134265312Y-120237500D02*
X134265312Y-119882598D01*
X141605000Y-110085592D02*
X141605000Y-109760000D01*
X140809046Y-110881546D02*
X141605000Y-110085592D01*
X140809046Y-110883134D02*
X140809046Y-110881546D01*
X140548950Y-111143230D02*
X140809046Y-110883134D01*
X135061230Y-120872500D02*
X135061230Y-120071416D01*
X140548950Y-111143230D02*
X140547362Y-111143230D01*
X139450030Y-112240562D02*
X139450029Y-115334291D01*
X140547362Y-111143230D02*
X139450030Y-112240562D01*
X135061230Y-119723090D02*
X135061230Y-120071416D01*
X139450029Y-115334291D02*
X135061230Y-119723090D01*
X142405000Y-109125000D02*
X142405000Y-109922002D01*
X139900040Y-112468460D02*
X139900038Y-115520692D01*
X135857148Y-119563582D02*
X135857148Y-120237500D01*
X139900038Y-115520692D02*
X135857148Y-119563582D01*
X142405000Y-109125000D02*
X142405000Y-109923590D01*
X140735351Y-111593239D02*
X140733763Y-111593239D01*
X142405000Y-109923590D02*
X140735351Y-111593239D01*
X139900040Y-112426962D02*
X139900040Y-112468460D01*
X140733763Y-111593239D02*
X139900040Y-112426962D01*
X142855009Y-110109991D02*
X140350058Y-112614942D01*
X140350058Y-112614942D02*
X140350058Y-113351942D01*
X140350049Y-113351951D02*
X140350047Y-115707093D01*
X140350058Y-113351942D02*
X140350049Y-113351951D01*
X136653066Y-119404074D02*
X136653066Y-120872500D01*
X140350047Y-115707093D02*
X136653066Y-119404074D01*
X142855009Y-110109991D02*
X143205000Y-109760000D01*
X138244902Y-120237500D02*
X138244902Y-119556902D01*
X138244902Y-119556902D02*
X141529000Y-116272804D01*
X144130499Y-110410001D02*
X144196000Y-110344500D01*
X141529000Y-112150998D02*
X143269997Y-110410001D01*
X143269997Y-110410001D02*
X144130499Y-110410001D01*
X141529000Y-116272804D02*
X141529000Y-112150998D01*
X139040820Y-120058680D02*
X139040820Y-120872500D01*
X143497500Y-111144500D02*
X143171908Y-111144500D01*
X141979010Y-112337398D02*
X141979010Y-116459204D01*
X143171908Y-111144500D02*
X141979010Y-112337398D01*
X139040820Y-119397394D02*
X139040820Y-120058680D01*
X141979010Y-116459204D02*
X139040820Y-119397394D01*
X142429020Y-112542980D02*
X142429019Y-116645605D01*
X144196000Y-111944500D02*
X143027500Y-111944500D01*
X139836738Y-119237886D02*
X139836738Y-120237500D01*
X142429019Y-116645605D02*
X139836738Y-119237886D01*
X143027500Y-111944500D02*
X142429020Y-112542980D01*
X143497500Y-112744500D02*
X142879030Y-113362970D01*
X142879030Y-113362970D02*
X142879028Y-116832006D01*
X140632656Y-119078378D02*
X140632656Y-120872500D01*
X142879028Y-116832006D02*
X140632656Y-119078378D01*
X127813000Y-106864400D02*
X127000200Y-106051600D01*
X127813000Y-115297200D02*
X127813000Y-106864400D01*
X125019000Y-107067600D02*
X126035000Y-106051600D01*
X123545800Y-118015000D02*
X125019000Y-116541800D01*
X125019000Y-116541800D02*
X125019000Y-107067600D01*
X124195801Y-106620799D02*
X124765000Y-106051600D01*
X124195801Y-111980199D02*
X124195801Y-106620799D01*
X123545800Y-112630200D02*
X124195801Y-111980199D01*
X123266400Y-109556800D02*
X123545800Y-109836200D01*
X123266400Y-106051600D02*
X123266400Y-109556800D01*
X120472400Y-113074700D02*
X121285200Y-113887500D01*
X120472400Y-106077000D02*
X120472400Y-113074700D01*
X131432500Y-113887500D02*
X136512500Y-113887500D01*
X131432500Y-111188750D02*
X136512500Y-111188750D01*
X136154999Y-105291501D02*
X137338000Y-104108500D01*
X136154999Y-109719999D02*
X136154999Y-105291501D01*
X136195000Y-109760000D02*
X136154999Y-109719999D01*
D18*
G36*
X153213000Y-124111000D02*
G01*
X100914400Y-124111000D01*
X100914400Y-106413865D01*
X118775800Y-106413865D01*
X118775800Y-106552935D01*
X118802931Y-106689333D01*
X118856151Y-106817816D01*
X118933414Y-106933449D01*
X118975800Y-106975835D01*
X118975801Y-117329744D01*
X118973353Y-117354600D01*
X118983122Y-117453792D01*
X119012055Y-117549174D01*
X119033927Y-117590092D01*
X119059042Y-117637079D01*
X119122274Y-117714127D01*
X119141580Y-117729971D01*
X119360000Y-117948391D01*
X119360000Y-118008335D01*
X119387131Y-118144733D01*
X119440351Y-118273216D01*
X119517614Y-118388849D01*
X119615951Y-118487186D01*
X119731584Y-118564449D01*
X119860067Y-118617669D01*
X119996465Y-118644800D01*
X120135535Y-118644800D01*
X120271933Y-118617669D01*
X120400416Y-118564449D01*
X120516049Y-118487186D01*
X120614386Y-118388849D01*
X120691649Y-118273216D01*
X120744869Y-118144733D01*
X120772000Y-118008335D01*
X120772000Y-117869265D01*
X120744869Y-117732867D01*
X120691649Y-117604384D01*
X120614386Y-117488751D01*
X120516049Y-117390414D01*
X120400416Y-117313151D01*
X120271933Y-117259931D01*
X120135535Y-117232800D01*
X120075591Y-117232800D01*
X119987800Y-117145009D01*
X119987800Y-113220302D01*
X120002655Y-113269274D01*
X120002656Y-113269275D01*
X120049642Y-113357179D01*
X120112874Y-113434227D01*
X120132180Y-113450071D01*
X120579200Y-113897092D01*
X120579200Y-113957035D01*
X120606331Y-114093433D01*
X120659551Y-114221916D01*
X120736814Y-114337549D01*
X120835151Y-114435886D01*
X120950784Y-114513149D01*
X121079267Y-114566369D01*
X121215665Y-114593500D01*
X121354735Y-114593500D01*
X121491133Y-114566369D01*
X121619616Y-114513149D01*
X121735249Y-114435886D01*
X121833586Y-114337549D01*
X121910849Y-114221916D01*
X121964069Y-114093433D01*
X121991200Y-113957035D01*
X121991200Y-113817965D01*
X121964069Y-113681567D01*
X121910849Y-113553084D01*
X121833586Y-113437451D01*
X121735249Y-113339114D01*
X121619616Y-113261851D01*
X121491133Y-113208631D01*
X121354735Y-113181500D01*
X121294792Y-113181500D01*
X120978400Y-112865109D01*
X120978400Y-106569435D01*
X121020786Y-106527049D01*
X121098049Y-106411416D01*
X121151269Y-106282933D01*
X121178400Y-106146535D01*
X121178400Y-106007465D01*
X121173348Y-105982065D01*
X122560400Y-105982065D01*
X122560400Y-106121135D01*
X122587531Y-106257533D01*
X122640751Y-106386016D01*
X122718014Y-106501649D01*
X122760400Y-106544035D01*
X122760401Y-109531944D01*
X122757953Y-109556800D01*
X122767722Y-109655992D01*
X122796655Y-109751374D01*
X122818527Y-109792292D01*
X122839800Y-109832091D01*
X122839800Y-109905735D01*
X122866931Y-110042133D01*
X122920151Y-110170616D01*
X122997414Y-110286249D01*
X123095751Y-110384586D01*
X123211384Y-110461849D01*
X123339867Y-110515069D01*
X123476265Y-110542200D01*
X123615335Y-110542200D01*
X123689801Y-110527388D01*
X123689801Y-111770607D01*
X123536208Y-111924200D01*
X123476265Y-111924200D01*
X123339867Y-111951331D01*
X123211384Y-112004551D01*
X123095751Y-112081814D01*
X122997414Y-112180151D01*
X122920151Y-112295784D01*
X122866931Y-112424267D01*
X122839800Y-112560665D01*
X122839800Y-112699735D01*
X122866931Y-112836133D01*
X122920151Y-112964616D01*
X122997414Y-113080249D01*
X123095751Y-113178586D01*
X123211384Y-113255849D01*
X123339867Y-113309069D01*
X123476265Y-113336200D01*
X123615335Y-113336200D01*
X123751733Y-113309069D01*
X123880216Y-113255849D01*
X123995849Y-113178586D01*
X124094186Y-113080249D01*
X124171449Y-112964616D01*
X124224669Y-112836133D01*
X124251800Y-112699735D01*
X124251800Y-112639792D01*
X124513000Y-112378591D01*
X124513000Y-116332208D01*
X123536209Y-117309000D01*
X123476265Y-117309000D01*
X123339867Y-117336131D01*
X123211384Y-117389351D01*
X123095751Y-117466614D01*
X122997414Y-117564951D01*
X122920151Y-117680584D01*
X122866931Y-117809067D01*
X122839800Y-117945465D01*
X122839800Y-118084535D01*
X122866931Y-118220933D01*
X122920151Y-118349416D01*
X122997414Y-118465049D01*
X123095751Y-118563386D01*
X123211384Y-118640649D01*
X123339867Y-118693869D01*
X123476265Y-118721000D01*
X123615335Y-118721000D01*
X123751733Y-118693869D01*
X123880216Y-118640649D01*
X123995849Y-118563386D01*
X124094186Y-118465049D01*
X124171449Y-118349416D01*
X124224669Y-118220933D01*
X124251800Y-118084535D01*
X124251800Y-118024591D01*
X125359220Y-116917172D01*
X125378527Y-116901327D01*
X125441759Y-116824279D01*
X125488745Y-116736375D01*
X125517678Y-116640993D01*
X125525000Y-116566654D01*
X125525000Y-116566647D01*
X125527447Y-116541801D01*
X125525000Y-116516955D01*
X125525000Y-107277191D01*
X126044592Y-106757600D01*
X126104535Y-106757600D01*
X126240933Y-106730469D01*
X126369416Y-106677249D01*
X126485049Y-106599986D01*
X126517600Y-106567435D01*
X126550151Y-106599986D01*
X126665784Y-106677249D01*
X126794267Y-106730469D01*
X126930665Y-106757600D01*
X126990609Y-106757600D01*
X127307001Y-107073993D01*
X127307000Y-114804765D01*
X127264614Y-114847151D01*
X127187351Y-114962784D01*
X127134131Y-115091267D01*
X127107000Y-115227665D01*
X127107000Y-115366735D01*
X127134131Y-115503133D01*
X127187351Y-115631616D01*
X127264614Y-115747249D01*
X127362951Y-115845586D01*
X127478584Y-115922849D01*
X127607067Y-115976069D01*
X127743465Y-116003200D01*
X127882535Y-116003200D01*
X128018933Y-115976069D01*
X128147416Y-115922849D01*
X128263049Y-115845586D01*
X128361386Y-115747249D01*
X128438649Y-115631616D01*
X128491869Y-115503133D01*
X128519000Y-115366735D01*
X128519000Y-115227665D01*
X128491869Y-115091267D01*
X128438649Y-114962784D01*
X128361386Y-114847151D01*
X128319000Y-114804765D01*
X128319000Y-111119215D01*
X130726500Y-111119215D01*
X130726500Y-111258285D01*
X130753631Y-111394683D01*
X130806851Y-111523166D01*
X130884114Y-111638799D01*
X130982451Y-111737136D01*
X131098084Y-111814399D01*
X131226567Y-111867619D01*
X131362965Y-111894750D01*
X131502035Y-111894750D01*
X131638433Y-111867619D01*
X131766916Y-111814399D01*
X131882549Y-111737136D01*
X131924935Y-111694750D01*
X136020065Y-111694750D01*
X136062451Y-111737136D01*
X136178084Y-111814399D01*
X136306567Y-111867619D01*
X136442965Y-111894750D01*
X136582035Y-111894750D01*
X136693980Y-111872483D01*
X136693981Y-113203767D01*
X136582035Y-113181500D01*
X136442965Y-113181500D01*
X136306567Y-113208631D01*
X136178084Y-113261851D01*
X136062451Y-113339114D01*
X136020065Y-113381500D01*
X131924935Y-113381500D01*
X131882549Y-113339114D01*
X131766916Y-113261851D01*
X131638433Y-113208631D01*
X131502035Y-113181500D01*
X131362965Y-113181500D01*
X131226567Y-113208631D01*
X131098084Y-113261851D01*
X130982451Y-113339114D01*
X130884114Y-113437451D01*
X130806851Y-113553084D01*
X130753631Y-113681567D01*
X130726500Y-113817965D01*
X130726500Y-113957035D01*
X130753631Y-114093433D01*
X130806851Y-114221916D01*
X130884114Y-114337549D01*
X130982451Y-114435886D01*
X131098084Y-114513149D01*
X131226567Y-114566369D01*
X131362965Y-114593500D01*
X131502035Y-114593500D01*
X131638433Y-114566369D01*
X131766916Y-114513149D01*
X131882549Y-114435886D01*
X131924935Y-114393500D01*
X136020065Y-114393500D01*
X136062451Y-114435886D01*
X136178084Y-114513149D01*
X136306567Y-114566369D01*
X136318029Y-114568649D01*
X132742679Y-118144000D01*
X132369435Y-118144000D01*
X132327049Y-118101614D01*
X132211416Y-118024351D01*
X132082933Y-117971131D01*
X131946535Y-117944000D01*
X131807465Y-117944000D01*
X131671067Y-117971131D01*
X131542584Y-118024351D01*
X131426951Y-118101614D01*
X131328614Y-118199951D01*
X131251351Y-118315584D01*
X131198131Y-118444067D01*
X131171000Y-118580465D01*
X131171000Y-118719535D01*
X131198131Y-118855933D01*
X131251351Y-118984416D01*
X131328614Y-119100049D01*
X131426951Y-119198386D01*
X131542584Y-119275649D01*
X131671067Y-119328869D01*
X131737847Y-119342152D01*
X131537343Y-119542656D01*
X131518031Y-119558505D01*
X131454799Y-119635553D01*
X131407813Y-119723458D01*
X131378880Y-119818840D01*
X131371558Y-119893179D01*
X131371558Y-119893186D01*
X131369111Y-119918032D01*
X131371558Y-119942879D01*
X131371558Y-120380065D01*
X131329172Y-120422451D01*
X131251909Y-120538084D01*
X131198689Y-120666567D01*
X131171558Y-120802965D01*
X131171558Y-120942035D01*
X131198689Y-121078433D01*
X131251909Y-121206916D01*
X131329172Y-121322549D01*
X131427509Y-121420886D01*
X131543142Y-121498149D01*
X131671625Y-121551369D01*
X131808023Y-121578500D01*
X131947093Y-121578500D01*
X132083491Y-121551369D01*
X132211974Y-121498149D01*
X132327607Y-121420886D01*
X132425944Y-121322549D01*
X132503207Y-121206916D01*
X132556427Y-121078433D01*
X132583558Y-120942035D01*
X132583558Y-120939446D01*
X132603941Y-120943500D01*
X132743011Y-120943500D01*
X132763394Y-120939446D01*
X132763394Y-120942035D01*
X132790525Y-121078433D01*
X132843745Y-121206916D01*
X132921008Y-121322549D01*
X133019345Y-121420886D01*
X133134978Y-121498149D01*
X133263461Y-121551369D01*
X133399859Y-121578500D01*
X133538929Y-121578500D01*
X133675327Y-121551369D01*
X133803810Y-121498149D01*
X133919443Y-121420886D01*
X134017780Y-121322549D01*
X134095043Y-121206916D01*
X134148263Y-121078433D01*
X134175394Y-120942035D01*
X134175394Y-120939446D01*
X134195777Y-120943500D01*
X134334847Y-120943500D01*
X134355230Y-120939446D01*
X134355230Y-120942035D01*
X134382361Y-121078433D01*
X134435581Y-121206916D01*
X134512844Y-121322549D01*
X134611181Y-121420886D01*
X134726814Y-121498149D01*
X134855297Y-121551369D01*
X134991695Y-121578500D01*
X135130765Y-121578500D01*
X135267163Y-121551369D01*
X135395646Y-121498149D01*
X135511279Y-121420886D01*
X135609616Y-121322549D01*
X135686879Y-121206916D01*
X135740099Y-121078433D01*
X135767230Y-120942035D01*
X135767230Y-120939446D01*
X135787613Y-120943500D01*
X135926683Y-120943500D01*
X135947066Y-120939446D01*
X135947066Y-120942035D01*
X135974197Y-121078433D01*
X136027417Y-121206916D01*
X136104680Y-121322549D01*
X136203017Y-121420886D01*
X136318650Y-121498149D01*
X136447133Y-121551369D01*
X136583531Y-121578500D01*
X136722601Y-121578500D01*
X136858999Y-121551369D01*
X136987482Y-121498149D01*
X137103115Y-121420886D01*
X137201452Y-121322549D01*
X137278715Y-121206916D01*
X137331935Y-121078433D01*
X137359066Y-120942035D01*
X137359066Y-120802965D01*
X137331935Y-120666567D01*
X137278715Y-120538084D01*
X137201452Y-120422451D01*
X137159066Y-120380065D01*
X137159066Y-119613665D01*
X140690272Y-116082460D01*
X140709573Y-116066620D01*
X140725413Y-116047319D01*
X140725417Y-116047315D01*
X140772805Y-115989572D01*
X140819792Y-115901668D01*
X140848725Y-115806286D01*
X140858495Y-115707093D01*
X140856046Y-115682229D01*
X140856049Y-113376888D01*
X140856058Y-113376796D01*
X140858506Y-113351942D01*
X140856058Y-113327088D01*
X140856058Y-112824533D01*
X141023001Y-112657590D01*
X141023000Y-116063212D01*
X137904683Y-119181530D01*
X137885376Y-119197375D01*
X137822144Y-119274423D01*
X137809434Y-119298202D01*
X137775157Y-119362328D01*
X137746224Y-119457710D01*
X137736455Y-119556902D01*
X137738903Y-119581758D01*
X137738903Y-119745064D01*
X137696516Y-119787451D01*
X137619253Y-119903084D01*
X137566033Y-120031567D01*
X137538902Y-120167965D01*
X137538902Y-120307035D01*
X137566033Y-120443433D01*
X137619253Y-120571916D01*
X137696516Y-120687549D01*
X137794853Y-120785886D01*
X137910486Y-120863149D01*
X138038969Y-120916369D01*
X138175367Y-120943500D01*
X138314437Y-120943500D01*
X138334820Y-120939446D01*
X138334820Y-120942035D01*
X138361951Y-121078433D01*
X138415171Y-121206916D01*
X138492434Y-121322549D01*
X138590771Y-121420886D01*
X138706404Y-121498149D01*
X138834887Y-121551369D01*
X138971285Y-121578500D01*
X139110355Y-121578500D01*
X139246753Y-121551369D01*
X139375236Y-121498149D01*
X139490869Y-121420886D01*
X139589206Y-121322549D01*
X139666469Y-121206916D01*
X139719689Y-121078433D01*
X139746820Y-120942035D01*
X139746820Y-120939446D01*
X139767203Y-120943500D01*
X139906273Y-120943500D01*
X139926656Y-120939446D01*
X139926656Y-120942035D01*
X139953787Y-121078433D01*
X140007007Y-121206916D01*
X140084270Y-121322549D01*
X140182607Y-121420886D01*
X140298240Y-121498149D01*
X140426723Y-121551369D01*
X140563121Y-121578500D01*
X140702191Y-121578500D01*
X140838589Y-121551369D01*
X140967072Y-121498149D01*
X141082705Y-121420886D01*
X141181042Y-121322549D01*
X141258305Y-121206916D01*
X141311525Y-121078433D01*
X141338656Y-120942035D01*
X141338656Y-120802965D01*
X141311525Y-120666567D01*
X141258305Y-120538084D01*
X141181042Y-120422451D01*
X141138656Y-120380065D01*
X141138656Y-119287969D01*
X143219253Y-117207373D01*
X143238554Y-117191533D01*
X143254394Y-117172232D01*
X143254398Y-117172228D01*
X143301786Y-117114485D01*
X143348773Y-117026581D01*
X143377706Y-116931199D01*
X143387476Y-116832006D01*
X143385027Y-116807142D01*
X143385030Y-113572561D01*
X143507091Y-113450500D01*
X143567035Y-113450500D01*
X143703433Y-113423369D01*
X143831916Y-113370149D01*
X143947549Y-113292886D01*
X144045886Y-113194549D01*
X144123149Y-113078916D01*
X144176369Y-112950433D01*
X144203500Y-112814035D01*
X144203500Y-112674965D01*
X144198634Y-112650500D01*
X144265535Y-112650500D01*
X144401933Y-112623369D01*
X144530416Y-112570149D01*
X144646049Y-112492886D01*
X144744386Y-112394549D01*
X144821649Y-112278916D01*
X144874869Y-112150433D01*
X144902000Y-112014035D01*
X144902000Y-111874965D01*
X144874869Y-111738567D01*
X144821649Y-111610084D01*
X144744386Y-111494451D01*
X144646049Y-111396114D01*
X144530416Y-111318851D01*
X144401933Y-111265631D01*
X144265535Y-111238500D01*
X144198634Y-111238500D01*
X144203500Y-111214035D01*
X144203500Y-111074965D01*
X144198634Y-111050500D01*
X144265535Y-111050500D01*
X144401933Y-111023369D01*
X144530416Y-110970149D01*
X144646049Y-110892886D01*
X144744386Y-110794549D01*
X144821649Y-110678916D01*
X144874869Y-110550433D01*
X144902000Y-110414035D01*
X144902000Y-110274965D01*
X144874869Y-110138567D01*
X144821649Y-110010084D01*
X144744386Y-109894451D01*
X144646049Y-109796114D01*
X144530416Y-109718851D01*
X144401933Y-109665631D01*
X144265535Y-109638500D01*
X144126465Y-109638500D01*
X143990067Y-109665631D01*
X143911000Y-109698382D01*
X143911000Y-109690465D01*
X143883869Y-109554067D01*
X143830649Y-109425584D01*
X143753386Y-109309951D01*
X143655049Y-109211614D01*
X143539416Y-109134351D01*
X143410933Y-109081131D01*
X143274535Y-109054000D01*
X143135465Y-109054000D01*
X143111000Y-109058866D01*
X143111000Y-109055465D01*
X143083869Y-108919067D01*
X143030649Y-108790584D01*
X142953386Y-108674951D01*
X142855049Y-108576614D01*
X142739416Y-108499351D01*
X142610933Y-108446131D01*
X142474535Y-108419000D01*
X142335465Y-108419000D01*
X142199067Y-108446131D01*
X142070584Y-108499351D01*
X141954951Y-108576614D01*
X141856614Y-108674951D01*
X141779351Y-108790584D01*
X141726131Y-108919067D01*
X141699000Y-109055465D01*
X141699000Y-109058866D01*
X141674535Y-109054000D01*
X141535465Y-109054000D01*
X141511000Y-109058866D01*
X141511000Y-109055465D01*
X141483869Y-108919067D01*
X141430649Y-108790584D01*
X141353386Y-108674951D01*
X141255049Y-108576614D01*
X141139416Y-108499351D01*
X141010933Y-108446131D01*
X140874535Y-108419000D01*
X140735465Y-108419000D01*
X140599067Y-108446131D01*
X140470584Y-108499351D01*
X140354951Y-108576614D01*
X140256614Y-108674951D01*
X140179351Y-108790584D01*
X140126131Y-108919067D01*
X140099000Y-109055465D01*
X140099000Y-109058866D01*
X140074535Y-109054000D01*
X139935465Y-109054000D01*
X139911000Y-109058866D01*
X139911000Y-109055465D01*
X139883869Y-108919067D01*
X139830649Y-108790584D01*
X139753386Y-108674951D01*
X139655049Y-108576614D01*
X139539416Y-108499351D01*
X139410933Y-108446131D01*
X139274535Y-108419000D01*
X139135465Y-108419000D01*
X138999067Y-108446131D01*
X138870584Y-108499351D01*
X138754951Y-108576614D01*
X138656614Y-108674951D01*
X138579351Y-108790584D01*
X138526131Y-108919067D01*
X138499000Y-109055465D01*
X138499000Y-109058866D01*
X138474535Y-109054000D01*
X138335465Y-109054000D01*
X138311000Y-109058866D01*
X138311000Y-109055465D01*
X138283869Y-108919067D01*
X138230649Y-108790584D01*
X138153386Y-108674951D01*
X138055049Y-108576614D01*
X137939416Y-108499351D01*
X137810933Y-108446131D01*
X137674535Y-108419000D01*
X137535465Y-108419000D01*
X137399067Y-108446131D01*
X137270584Y-108499351D01*
X137154951Y-108576614D01*
X137056614Y-108674951D01*
X136979351Y-108790584D01*
X136926131Y-108919067D01*
X136899000Y-109055465D01*
X136899000Y-109194535D01*
X136926131Y-109330933D01*
X136979351Y-109459416D01*
X137056614Y-109575049D01*
X137099000Y-109617435D01*
X137099001Y-110693950D01*
X137057568Y-110735383D01*
X136962549Y-110640364D01*
X136846916Y-110563101D01*
X136718433Y-110509881D01*
X136582035Y-110482750D01*
X136442965Y-110482750D01*
X136306567Y-110509881D01*
X136178084Y-110563101D01*
X136062451Y-110640364D01*
X136020065Y-110682750D01*
X131924935Y-110682750D01*
X131882549Y-110640364D01*
X131766916Y-110563101D01*
X131638433Y-110509881D01*
X131502035Y-110482750D01*
X131362965Y-110482750D01*
X131226567Y-110509881D01*
X131098084Y-110563101D01*
X130982451Y-110640364D01*
X130884114Y-110738701D01*
X130806851Y-110854334D01*
X130753631Y-110982817D01*
X130726500Y-111119215D01*
X128319000Y-111119215D01*
X128319000Y-106889254D01*
X128321448Y-106864400D01*
X128311678Y-106765207D01*
X128282745Y-106669825D01*
X128235759Y-106581921D01*
X128172527Y-106504873D01*
X128153220Y-106489028D01*
X127706200Y-106042009D01*
X127706200Y-105982065D01*
X127679069Y-105845667D01*
X127625849Y-105717184D01*
X127548586Y-105601551D01*
X127450249Y-105503214D01*
X127334616Y-105425951D01*
X127206133Y-105372731D01*
X127069735Y-105345600D01*
X126930665Y-105345600D01*
X126794267Y-105372731D01*
X126665784Y-105425951D01*
X126550151Y-105503214D01*
X126517600Y-105535765D01*
X126485049Y-105503214D01*
X126369416Y-105425951D01*
X126240933Y-105372731D01*
X126104535Y-105345600D01*
X125965465Y-105345600D01*
X125829067Y-105372731D01*
X125700584Y-105425951D01*
X125584951Y-105503214D01*
X125486614Y-105601551D01*
X125409351Y-105717184D01*
X125400000Y-105739759D01*
X125390649Y-105717184D01*
X125313386Y-105601551D01*
X125215049Y-105503214D01*
X125099416Y-105425951D01*
X124970933Y-105372731D01*
X124834535Y-105345600D01*
X124695465Y-105345600D01*
X124559067Y-105372731D01*
X124430584Y-105425951D01*
X124314951Y-105503214D01*
X124216614Y-105601551D01*
X124139351Y-105717184D01*
X124086131Y-105845667D01*
X124059000Y-105982065D01*
X124059000Y-106042009D01*
X123970544Y-106130464D01*
X123972400Y-106121135D01*
X123972400Y-105982065D01*
X123945269Y-105845667D01*
X123892049Y-105717184D01*
X123814786Y-105601551D01*
X123716449Y-105503214D01*
X123600816Y-105425951D01*
X123472333Y-105372731D01*
X123335935Y-105345600D01*
X123196865Y-105345600D01*
X123060467Y-105372731D01*
X122931984Y-105425951D01*
X122816351Y-105503214D01*
X122718014Y-105601551D01*
X122640751Y-105717184D01*
X122587531Y-105845667D01*
X122560400Y-105982065D01*
X121173348Y-105982065D01*
X121151269Y-105871067D01*
X121098049Y-105742584D01*
X121020786Y-105626951D01*
X120922449Y-105528614D01*
X120806816Y-105451351D01*
X120678333Y-105398131D01*
X120541935Y-105371000D01*
X120402865Y-105371000D01*
X120266467Y-105398131D01*
X120137984Y-105451351D01*
X120022351Y-105528614D01*
X119924014Y-105626951D01*
X119846751Y-105742584D01*
X119801561Y-105851681D01*
X119687733Y-105804531D01*
X119551335Y-105777400D01*
X119412265Y-105777400D01*
X119275867Y-105804531D01*
X119147384Y-105857751D01*
X119031751Y-105935014D01*
X118933414Y-106033351D01*
X118856151Y-106148984D01*
X118802931Y-106277467D01*
X118775800Y-106413865D01*
X100914400Y-106413865D01*
X100914400Y-102698078D01*
X106839000Y-102698078D01*
X106839000Y-102851922D01*
X106869013Y-103002809D01*
X106927887Y-103144942D01*
X106989000Y-103236405D01*
X106989000Y-103583595D01*
X106927887Y-103675058D01*
X106869013Y-103817191D01*
X106839000Y-103968078D01*
X106839000Y-104121922D01*
X106869013Y-104272809D01*
X106927887Y-104414942D01*
X106989001Y-104506406D01*
X106989001Y-104853594D01*
X106927887Y-104945058D01*
X106869013Y-105087191D01*
X106839000Y-105238078D01*
X106839000Y-105391922D01*
X106869013Y-105542809D01*
X106927887Y-105684942D01*
X107013358Y-105812859D01*
X107122141Y-105921642D01*
X107250058Y-106007113D01*
X107392191Y-106065987D01*
X107543078Y-106096000D01*
X107696922Y-106096000D01*
X107847809Y-106065987D01*
X107989942Y-106007113D01*
X108117859Y-105921642D01*
X108226642Y-105812859D01*
X108312113Y-105684942D01*
X108370987Y-105542809D01*
X108401000Y-105391922D01*
X108401000Y-105238078D01*
X108370987Y-105087191D01*
X108312113Y-104945058D01*
X108251000Y-104853595D01*
X108251000Y-104506405D01*
X108312113Y-104414942D01*
X108314004Y-104410376D01*
X132433874Y-104410376D01*
X132513790Y-104618029D01*
X132632682Y-104806101D01*
X132785980Y-104967365D01*
X132967794Y-105095623D01*
X133171136Y-105185946D01*
X133226126Y-105202619D01*
X133401000Y-105076454D01*
X133401000Y-104235500D01*
X132558871Y-104235500D01*
X132433874Y-104410376D01*
X108314004Y-104410376D01*
X108370987Y-104272809D01*
X108401000Y-104121922D01*
X108401000Y-103968078D01*
X108370987Y-103817191D01*
X108366610Y-103806624D01*
X132433874Y-103806624D01*
X132558871Y-103981500D01*
X133401000Y-103981500D01*
X133401000Y-103140546D01*
X133655000Y-103140546D01*
X133655000Y-103981500D01*
X133675000Y-103981500D01*
X133675000Y-104235500D01*
X133655000Y-104235500D01*
X133655000Y-105076454D01*
X133829874Y-105202619D01*
X133884864Y-105185946D01*
X134088206Y-105095623D01*
X134270020Y-104967365D01*
X134358431Y-104874359D01*
X134380690Y-104889232D01*
X134541022Y-104955644D01*
X134711229Y-104989500D01*
X134884771Y-104989500D01*
X135054978Y-104955644D01*
X135215310Y-104889232D01*
X135359605Y-104792818D01*
X135433000Y-104719423D01*
X135506395Y-104792818D01*
X135650690Y-104889232D01*
X135784920Y-104944832D01*
X135732241Y-105009022D01*
X135707126Y-105056009D01*
X135685254Y-105096927D01*
X135656321Y-105192309D01*
X135646552Y-105291501D01*
X135649000Y-105316357D01*
X135648999Y-109307566D01*
X135646614Y-109309951D01*
X135569351Y-109425584D01*
X135516131Y-109554067D01*
X135489000Y-109690465D01*
X135489000Y-109829535D01*
X135516131Y-109965933D01*
X135569351Y-110094416D01*
X135646614Y-110210049D01*
X135744951Y-110308386D01*
X135860584Y-110385649D01*
X135989067Y-110438869D01*
X136125465Y-110466000D01*
X136264535Y-110466000D01*
X136400933Y-110438869D01*
X136529416Y-110385649D01*
X136645049Y-110308386D01*
X136743386Y-110210049D01*
X136820649Y-110094416D01*
X136873869Y-109965933D01*
X136901000Y-109829535D01*
X136901000Y-109690465D01*
X136873869Y-109554067D01*
X136820649Y-109425584D01*
X136743386Y-109309951D01*
X136660999Y-109227564D01*
X136660999Y-106037000D01*
X147265657Y-106037000D01*
X147265657Y-107387000D01*
X147273013Y-107461689D01*
X147294799Y-107533508D01*
X147330178Y-107599696D01*
X147377789Y-107657711D01*
X147435804Y-107705322D01*
X147501992Y-107740701D01*
X147573811Y-107762487D01*
X147648500Y-107769843D01*
X148998500Y-107769843D01*
X149073189Y-107762487D01*
X149145008Y-107740701D01*
X149211196Y-107705322D01*
X149269211Y-107657711D01*
X149316822Y-107599696D01*
X149335854Y-107564090D01*
X149452273Y-107690303D01*
X149607244Y-107803151D01*
X149484273Y-107892697D01*
X149367854Y-108018910D01*
X149348822Y-107983304D01*
X149301211Y-107925289D01*
X149243196Y-107877678D01*
X149177008Y-107842299D01*
X149105189Y-107820513D01*
X149030500Y-107813157D01*
X147680500Y-107813157D01*
X147605811Y-107820513D01*
X147533992Y-107842299D01*
X147467804Y-107877678D01*
X147409789Y-107925289D01*
X147362178Y-107983304D01*
X147326799Y-108049492D01*
X147305013Y-108121311D01*
X147297657Y-108196000D01*
X147297657Y-109546000D01*
X147305013Y-109620689D01*
X147326799Y-109692508D01*
X147362178Y-109758696D01*
X147409789Y-109816711D01*
X147467804Y-109864322D01*
X147533992Y-109899701D01*
X147605811Y-109921487D01*
X147680500Y-109928843D01*
X149030500Y-109928843D01*
X149105189Y-109921487D01*
X149177008Y-109899701D01*
X149243196Y-109864322D01*
X149301211Y-109816711D01*
X149348822Y-109758696D01*
X149367854Y-109723090D01*
X149484273Y-109849303D01*
X149691871Y-110000473D01*
X149924972Y-110108238D01*
X150026100Y-110138910D01*
X150228500Y-110015224D01*
X150228500Y-108998000D01*
X150482500Y-108998000D01*
X150482500Y-110015224D01*
X150684900Y-110138910D01*
X150786028Y-110108238D01*
X151019129Y-110000473D01*
X151226727Y-109849303D01*
X151400844Y-109660537D01*
X151534789Y-109441430D01*
X151623415Y-109200401D01*
X151500585Y-108998000D01*
X150482500Y-108998000D01*
X150228500Y-108998000D01*
X150208500Y-108998000D01*
X150208500Y-108744000D01*
X150228500Y-108744000D01*
X150228500Y-107726776D01*
X150196500Y-107707221D01*
X150196500Y-106839000D01*
X150450500Y-106839000D01*
X150450500Y-107856224D01*
X150482500Y-107875779D01*
X150482500Y-108744000D01*
X151500585Y-108744000D01*
X151623415Y-108541599D01*
X151534789Y-108300570D01*
X151400844Y-108081463D01*
X151226727Y-107892697D01*
X151071756Y-107779849D01*
X151194727Y-107690303D01*
X151368844Y-107501537D01*
X151502789Y-107282430D01*
X151591415Y-107041401D01*
X151468585Y-106839000D01*
X150450500Y-106839000D01*
X150196500Y-106839000D01*
X150176500Y-106839000D01*
X150176500Y-106585000D01*
X150196500Y-106585000D01*
X150196500Y-105567776D01*
X150450500Y-105567776D01*
X150450500Y-106585000D01*
X151468585Y-106585000D01*
X151591415Y-106382599D01*
X151502789Y-106141570D01*
X151368844Y-105922463D01*
X151194727Y-105733697D01*
X150987129Y-105582527D01*
X150754028Y-105474762D01*
X150652900Y-105444090D01*
X150450500Y-105567776D01*
X150196500Y-105567776D01*
X149994100Y-105444090D01*
X149892972Y-105474762D01*
X149659871Y-105582527D01*
X149452273Y-105733697D01*
X149335854Y-105859910D01*
X149316822Y-105824304D01*
X149269211Y-105766289D01*
X149211196Y-105718678D01*
X149145008Y-105683299D01*
X149073189Y-105661513D01*
X148998500Y-105654157D01*
X147648500Y-105654157D01*
X147573811Y-105661513D01*
X147501992Y-105683299D01*
X147435804Y-105718678D01*
X147377789Y-105766289D01*
X147330178Y-105824304D01*
X147294799Y-105890492D01*
X147273013Y-105962311D01*
X147265657Y-106037000D01*
X136660999Y-106037000D01*
X136660999Y-105501092D01*
X137185638Y-104976453D01*
X137251229Y-104989500D01*
X137424771Y-104989500D01*
X137594978Y-104955644D01*
X137755310Y-104889232D01*
X137813568Y-104850306D01*
X137837289Y-104879211D01*
X137895304Y-104926822D01*
X137961492Y-104962201D01*
X138033311Y-104983987D01*
X138108000Y-104991343D01*
X139108000Y-104991343D01*
X139182689Y-104983987D01*
X139254508Y-104962201D01*
X139320696Y-104926822D01*
X139378711Y-104879211D01*
X139426322Y-104821196D01*
X139461701Y-104755008D01*
X139483487Y-104683189D01*
X139490843Y-104608500D01*
X139490843Y-103608500D01*
X139483487Y-103533811D01*
X139461701Y-103461992D01*
X139426322Y-103395804D01*
X139378711Y-103337789D01*
X139320696Y-103290178D01*
X139254508Y-103254799D01*
X139182689Y-103233013D01*
X139108000Y-103225657D01*
X138108000Y-103225657D01*
X138033311Y-103233013D01*
X137961492Y-103254799D01*
X137895304Y-103290178D01*
X137837289Y-103337789D01*
X137813568Y-103366694D01*
X137755310Y-103327768D01*
X137594978Y-103261356D01*
X137424771Y-103227500D01*
X137251229Y-103227500D01*
X137081022Y-103261356D01*
X136920690Y-103327768D01*
X136776395Y-103424182D01*
X136703000Y-103497577D01*
X136629605Y-103424182D01*
X136485310Y-103327768D01*
X136324978Y-103261356D01*
X136154771Y-103227500D01*
X135981229Y-103227500D01*
X135811022Y-103261356D01*
X135650690Y-103327768D01*
X135506395Y-103424182D01*
X135433000Y-103497577D01*
X135359605Y-103424182D01*
X135215310Y-103327768D01*
X135054978Y-103261356D01*
X134884771Y-103227500D01*
X134711229Y-103227500D01*
X134541022Y-103261356D01*
X134380690Y-103327768D01*
X134358431Y-103342641D01*
X134270020Y-103249635D01*
X134088206Y-103121377D01*
X133884864Y-103031054D01*
X133829874Y-103014381D01*
X133655000Y-103140546D01*
X133401000Y-103140546D01*
X133226126Y-103014381D01*
X133171136Y-103031054D01*
X132967794Y-103121377D01*
X132785980Y-103249635D01*
X132632682Y-103410899D01*
X132513790Y-103598971D01*
X132433874Y-103806624D01*
X108366610Y-103806624D01*
X108312113Y-103675058D01*
X108251000Y-103583595D01*
X108251000Y-103236405D01*
X108312113Y-103144942D01*
X108370987Y-103002809D01*
X108401000Y-102851922D01*
X108401000Y-102735000D01*
X147202157Y-102735000D01*
X147202157Y-104085000D01*
X147209513Y-104159689D01*
X147231299Y-104231508D01*
X147266678Y-104297696D01*
X147314289Y-104355711D01*
X147372304Y-104403322D01*
X147438492Y-104438701D01*
X147510311Y-104460487D01*
X147585000Y-104467843D01*
X148935000Y-104467843D01*
X149009689Y-104460487D01*
X149081508Y-104438701D01*
X149147696Y-104403322D01*
X149205711Y-104355711D01*
X149253322Y-104297696D01*
X149272354Y-104262090D01*
X149388773Y-104388303D01*
X149596371Y-104539473D01*
X149829472Y-104647238D01*
X149930600Y-104677910D01*
X150133000Y-104554224D01*
X150133000Y-103537000D01*
X150387000Y-103537000D01*
X150387000Y-104554224D01*
X150589400Y-104677910D01*
X150690528Y-104647238D01*
X150923629Y-104539473D01*
X151131227Y-104388303D01*
X151305344Y-104199537D01*
X151439289Y-103980430D01*
X151527915Y-103739401D01*
X151405085Y-103537000D01*
X150387000Y-103537000D01*
X150133000Y-103537000D01*
X150113000Y-103537000D01*
X150113000Y-103283000D01*
X150133000Y-103283000D01*
X150133000Y-102265776D01*
X150387000Y-102265776D01*
X150387000Y-103283000D01*
X151405085Y-103283000D01*
X151527915Y-103080599D01*
X151439289Y-102839570D01*
X151305344Y-102620463D01*
X151131227Y-102431697D01*
X150923629Y-102280527D01*
X150690528Y-102172762D01*
X150589400Y-102142090D01*
X150387000Y-102265776D01*
X150133000Y-102265776D01*
X149930600Y-102142090D01*
X149829472Y-102172762D01*
X149596371Y-102280527D01*
X149388773Y-102431697D01*
X149272354Y-102557910D01*
X149253322Y-102522304D01*
X149205711Y-102464289D01*
X149147696Y-102416678D01*
X149081508Y-102381299D01*
X149009689Y-102359513D01*
X148935000Y-102352157D01*
X147585000Y-102352157D01*
X147510311Y-102359513D01*
X147438492Y-102381299D01*
X147372304Y-102416678D01*
X147314289Y-102464289D01*
X147266678Y-102522304D01*
X147231299Y-102588492D01*
X147209513Y-102660311D01*
X147202157Y-102735000D01*
X108401000Y-102735000D01*
X108401000Y-102698078D01*
X108370987Y-102547191D01*
X108312113Y-102405058D01*
X108260722Y-102328146D01*
X108452869Y-102136000D01*
X126487995Y-102136000D01*
X126579458Y-102197113D01*
X126721591Y-102255987D01*
X126872478Y-102286000D01*
X127026322Y-102286000D01*
X127177209Y-102255987D01*
X127319342Y-102197113D01*
X127410805Y-102136000D01*
X137638595Y-102136000D01*
X137730058Y-102197113D01*
X137872191Y-102255987D01*
X138023078Y-102286000D01*
X138176922Y-102286000D01*
X138327809Y-102255987D01*
X138469942Y-102197113D01*
X138561405Y-102136000D01*
X138908595Y-102136000D01*
X139000058Y-102197113D01*
X139142191Y-102255987D01*
X139293078Y-102286000D01*
X139446922Y-102286000D01*
X139597809Y-102255987D01*
X139739942Y-102197113D01*
X139831405Y-102136000D01*
X140178595Y-102136000D01*
X140270058Y-102197113D01*
X140412191Y-102255987D01*
X140563078Y-102286000D01*
X140716922Y-102286000D01*
X140867809Y-102255987D01*
X141009942Y-102197113D01*
X141137859Y-102111642D01*
X141246642Y-102002859D01*
X141332113Y-101874942D01*
X141390987Y-101732809D01*
X141421000Y-101581922D01*
X141421000Y-101428078D01*
X141390987Y-101277191D01*
X141332113Y-101135058D01*
X141246642Y-101007141D01*
X141137859Y-100898358D01*
X141009942Y-100812887D01*
X140867809Y-100754013D01*
X140716922Y-100724000D01*
X140563078Y-100724000D01*
X140412191Y-100754013D01*
X140270058Y-100812887D01*
X140178595Y-100874000D01*
X139831405Y-100874000D01*
X139739942Y-100812887D01*
X139597809Y-100754013D01*
X139446922Y-100724000D01*
X139293078Y-100724000D01*
X139142191Y-100754013D01*
X139000058Y-100812887D01*
X138908595Y-100874000D01*
X138561405Y-100874000D01*
X138469942Y-100812887D01*
X138327809Y-100754013D01*
X138176922Y-100724000D01*
X138023078Y-100724000D01*
X137872191Y-100754013D01*
X137730058Y-100812887D01*
X137638595Y-100874000D01*
X127410805Y-100874000D01*
X127319342Y-100812887D01*
X127177209Y-100754013D01*
X127026322Y-100724000D01*
X126872478Y-100724000D01*
X126721591Y-100754013D01*
X126579458Y-100812887D01*
X126487995Y-100874000D01*
X108222487Y-100874000D01*
X108191499Y-100870948D01*
X108160511Y-100874000D01*
X108160502Y-100874000D01*
X108067802Y-100883130D01*
X107948858Y-100919211D01*
X107839239Y-100977804D01*
X107743157Y-101056657D01*
X107723399Y-101080732D01*
X107195737Y-101608395D01*
X107171657Y-101628157D01*
X107092804Y-101724240D01*
X107034211Y-101833859D01*
X106998130Y-101952803D01*
X106989000Y-102045503D01*
X106989000Y-102045510D01*
X106985948Y-102076500D01*
X106989000Y-102107490D01*
X106989000Y-102313595D01*
X106927887Y-102405058D01*
X106869013Y-102547191D01*
X106839000Y-102698078D01*
X100914400Y-102698078D01*
X100914400Y-99981000D01*
X153213000Y-99981000D01*
X153213000Y-124111000D01*
G37*
X153213000Y-124111000D02*
X100914400Y-124111000D01*
X100914400Y-106413865D01*
X118775800Y-106413865D01*
X118775800Y-106552935D01*
X118802931Y-106689333D01*
X118856151Y-106817816D01*
X118933414Y-106933449D01*
X118975800Y-106975835D01*
X118975801Y-117329744D01*
X118973353Y-117354600D01*
X118983122Y-117453792D01*
X119012055Y-117549174D01*
X119033927Y-117590092D01*
X119059042Y-117637079D01*
X119122274Y-117714127D01*
X119141580Y-117729971D01*
X119360000Y-117948391D01*
X119360000Y-118008335D01*
X119387131Y-118144733D01*
X119440351Y-118273216D01*
X119517614Y-118388849D01*
X119615951Y-118487186D01*
X119731584Y-118564449D01*
X119860067Y-118617669D01*
X119996465Y-118644800D01*
X120135535Y-118644800D01*
X120271933Y-118617669D01*
X120400416Y-118564449D01*
X120516049Y-118487186D01*
X120614386Y-118388849D01*
X120691649Y-118273216D01*
X120744869Y-118144733D01*
X120772000Y-118008335D01*
X120772000Y-117869265D01*
X120744869Y-117732867D01*
X120691649Y-117604384D01*
X120614386Y-117488751D01*
X120516049Y-117390414D01*
X120400416Y-117313151D01*
X120271933Y-117259931D01*
X120135535Y-117232800D01*
X120075591Y-117232800D01*
X119987800Y-117145009D01*
X119987800Y-113220302D01*
X120002655Y-113269274D01*
X120002656Y-113269275D01*
X120049642Y-113357179D01*
X120112874Y-113434227D01*
X120132180Y-113450071D01*
X120579200Y-113897092D01*
X120579200Y-113957035D01*
X120606331Y-114093433D01*
X120659551Y-114221916D01*
X120736814Y-114337549D01*
X120835151Y-114435886D01*
X120950784Y-114513149D01*
X121079267Y-114566369D01*
X121215665Y-114593500D01*
X121354735Y-114593500D01*
X121491133Y-114566369D01*
X121619616Y-114513149D01*
X121735249Y-114435886D01*
X121833586Y-114337549D01*
X121910849Y-114221916D01*
X121964069Y-114093433D01*
X121991200Y-113957035D01*
X121991200Y-113817965D01*
X121964069Y-113681567D01*
X121910849Y-113553084D01*
X121833586Y-113437451D01*
X121735249Y-113339114D01*
X121619616Y-113261851D01*
X121491133Y-113208631D01*
X121354735Y-113181500D01*
X121294792Y-113181500D01*
X120978400Y-112865109D01*
X120978400Y-106569435D01*
X121020786Y-106527049D01*
X121098049Y-106411416D01*
X121151269Y-106282933D01*
X121178400Y-106146535D01*
X121178400Y-106007465D01*
X121173348Y-105982065D01*
X122560400Y-105982065D01*
X122560400Y-106121135D01*
X122587531Y-106257533D01*
X122640751Y-106386016D01*
X122718014Y-106501649D01*
X122760400Y-106544035D01*
X122760401Y-109531944D01*
X122757953Y-109556800D01*
X122767722Y-109655992D01*
X122796655Y-109751374D01*
X122818527Y-109792292D01*
X122839800Y-109832091D01*
X122839800Y-109905735D01*
X122866931Y-110042133D01*
X122920151Y-110170616D01*
X122997414Y-110286249D01*
X123095751Y-110384586D01*
X123211384Y-110461849D01*
X123339867Y-110515069D01*
X123476265Y-110542200D01*
X123615335Y-110542200D01*
X123689801Y-110527388D01*
X123689801Y-111770607D01*
X123536208Y-111924200D01*
X123476265Y-111924200D01*
X123339867Y-111951331D01*
X123211384Y-112004551D01*
X123095751Y-112081814D01*
X122997414Y-112180151D01*
X122920151Y-112295784D01*
X122866931Y-112424267D01*
X122839800Y-112560665D01*
X122839800Y-112699735D01*
X122866931Y-112836133D01*
X122920151Y-112964616D01*
X122997414Y-113080249D01*
X123095751Y-113178586D01*
X123211384Y-113255849D01*
X123339867Y-113309069D01*
X123476265Y-113336200D01*
X123615335Y-113336200D01*
X123751733Y-113309069D01*
X123880216Y-113255849D01*
X123995849Y-113178586D01*
X124094186Y-113080249D01*
X124171449Y-112964616D01*
X124224669Y-112836133D01*
X124251800Y-112699735D01*
X124251800Y-112639792D01*
X124513000Y-112378591D01*
X124513000Y-116332208D01*
X123536209Y-117309000D01*
X123476265Y-117309000D01*
X123339867Y-117336131D01*
X123211384Y-117389351D01*
X123095751Y-117466614D01*
X122997414Y-117564951D01*
X122920151Y-117680584D01*
X122866931Y-117809067D01*
X122839800Y-117945465D01*
X122839800Y-118084535D01*
X122866931Y-118220933D01*
X122920151Y-118349416D01*
X122997414Y-118465049D01*
X123095751Y-118563386D01*
X123211384Y-118640649D01*
X123339867Y-118693869D01*
X123476265Y-118721000D01*
X123615335Y-118721000D01*
X123751733Y-118693869D01*
X123880216Y-118640649D01*
X123995849Y-118563386D01*
X124094186Y-118465049D01*
X124171449Y-118349416D01*
X124224669Y-118220933D01*
X124251800Y-118084535D01*
X124251800Y-118024591D01*
X125359220Y-116917172D01*
X125378527Y-116901327D01*
X125441759Y-116824279D01*
X125488745Y-116736375D01*
X125517678Y-116640993D01*
X125525000Y-116566654D01*
X125525000Y-116566647D01*
X125527447Y-116541801D01*
X125525000Y-116516955D01*
X125525000Y-107277191D01*
X126044592Y-106757600D01*
X126104535Y-106757600D01*
X126240933Y-106730469D01*
X126369416Y-106677249D01*
X126485049Y-106599986D01*
X126517600Y-106567435D01*
X126550151Y-106599986D01*
X126665784Y-106677249D01*
X126794267Y-106730469D01*
X126930665Y-106757600D01*
X126990609Y-106757600D01*
X127307001Y-107073993D01*
X127307000Y-114804765D01*
X127264614Y-114847151D01*
X127187351Y-114962784D01*
X127134131Y-115091267D01*
X127107000Y-115227665D01*
X127107000Y-115366735D01*
X127134131Y-115503133D01*
X127187351Y-115631616D01*
X127264614Y-115747249D01*
X127362951Y-115845586D01*
X127478584Y-115922849D01*
X127607067Y-115976069D01*
X127743465Y-116003200D01*
X127882535Y-116003200D01*
X128018933Y-115976069D01*
X128147416Y-115922849D01*
X128263049Y-115845586D01*
X128361386Y-115747249D01*
X128438649Y-115631616D01*
X128491869Y-115503133D01*
X128519000Y-115366735D01*
X128519000Y-115227665D01*
X128491869Y-115091267D01*
X128438649Y-114962784D01*
X128361386Y-114847151D01*
X128319000Y-114804765D01*
X128319000Y-111119215D01*
X130726500Y-111119215D01*
X130726500Y-111258285D01*
X130753631Y-111394683D01*
X130806851Y-111523166D01*
X130884114Y-111638799D01*
X130982451Y-111737136D01*
X131098084Y-111814399D01*
X131226567Y-111867619D01*
X131362965Y-111894750D01*
X131502035Y-111894750D01*
X131638433Y-111867619D01*
X131766916Y-111814399D01*
X131882549Y-111737136D01*
X131924935Y-111694750D01*
X136020065Y-111694750D01*
X136062451Y-111737136D01*
X136178084Y-111814399D01*
X136306567Y-111867619D01*
X136442965Y-111894750D01*
X136582035Y-111894750D01*
X136693980Y-111872483D01*
X136693981Y-113203767D01*
X136582035Y-113181500D01*
X136442965Y-113181500D01*
X136306567Y-113208631D01*
X136178084Y-113261851D01*
X136062451Y-113339114D01*
X136020065Y-113381500D01*
X131924935Y-113381500D01*
X131882549Y-113339114D01*
X131766916Y-113261851D01*
X131638433Y-113208631D01*
X131502035Y-113181500D01*
X131362965Y-113181500D01*
X131226567Y-113208631D01*
X131098084Y-113261851D01*
X130982451Y-113339114D01*
X130884114Y-113437451D01*
X130806851Y-113553084D01*
X130753631Y-113681567D01*
X130726500Y-113817965D01*
X130726500Y-113957035D01*
X130753631Y-114093433D01*
X130806851Y-114221916D01*
X130884114Y-114337549D01*
X130982451Y-114435886D01*
X131098084Y-114513149D01*
X131226567Y-114566369D01*
X131362965Y-114593500D01*
X131502035Y-114593500D01*
X131638433Y-114566369D01*
X131766916Y-114513149D01*
X131882549Y-114435886D01*
X131924935Y-114393500D01*
X136020065Y-114393500D01*
X136062451Y-114435886D01*
X136178084Y-114513149D01*
X136306567Y-114566369D01*
X136318029Y-114568649D01*
X132742679Y-118144000D01*
X132369435Y-118144000D01*
X132327049Y-118101614D01*
X132211416Y-118024351D01*
X132082933Y-117971131D01*
X131946535Y-117944000D01*
X131807465Y-117944000D01*
X131671067Y-117971131D01*
X131542584Y-118024351D01*
X131426951Y-118101614D01*
X131328614Y-118199951D01*
X131251351Y-118315584D01*
X131198131Y-118444067D01*
X131171000Y-118580465D01*
X131171000Y-118719535D01*
X131198131Y-118855933D01*
X131251351Y-118984416D01*
X131328614Y-119100049D01*
X131426951Y-119198386D01*
X131542584Y-119275649D01*
X131671067Y-119328869D01*
X131737847Y-119342152D01*
X131537343Y-119542656D01*
X131518031Y-119558505D01*
X131454799Y-119635553D01*
X131407813Y-119723458D01*
X131378880Y-119818840D01*
X131371558Y-119893179D01*
X131371558Y-119893186D01*
X131369111Y-119918032D01*
X131371558Y-119942879D01*
X131371558Y-120380065D01*
X131329172Y-120422451D01*
X131251909Y-120538084D01*
X131198689Y-120666567D01*
X131171558Y-120802965D01*
X131171558Y-120942035D01*
X131198689Y-121078433D01*
X131251909Y-121206916D01*
X131329172Y-121322549D01*
X131427509Y-121420886D01*
X131543142Y-121498149D01*
X131671625Y-121551369D01*
X131808023Y-121578500D01*
X131947093Y-121578500D01*
X132083491Y-121551369D01*
X132211974Y-121498149D01*
X132327607Y-121420886D01*
X132425944Y-121322549D01*
X132503207Y-121206916D01*
X132556427Y-121078433D01*
X132583558Y-120942035D01*
X132583558Y-120939446D01*
X132603941Y-120943500D01*
X132743011Y-120943500D01*
X132763394Y-120939446D01*
X132763394Y-120942035D01*
X132790525Y-121078433D01*
X132843745Y-121206916D01*
X132921008Y-121322549D01*
X133019345Y-121420886D01*
X133134978Y-121498149D01*
X133263461Y-121551369D01*
X133399859Y-121578500D01*
X133538929Y-121578500D01*
X133675327Y-121551369D01*
X133803810Y-121498149D01*
X133919443Y-121420886D01*
X134017780Y-121322549D01*
X134095043Y-121206916D01*
X134148263Y-121078433D01*
X134175394Y-120942035D01*
X134175394Y-120939446D01*
X134195777Y-120943500D01*
X134334847Y-120943500D01*
X134355230Y-120939446D01*
X134355230Y-120942035D01*
X134382361Y-121078433D01*
X134435581Y-121206916D01*
X134512844Y-121322549D01*
X134611181Y-121420886D01*
X134726814Y-121498149D01*
X134855297Y-121551369D01*
X134991695Y-121578500D01*
X135130765Y-121578500D01*
X135267163Y-121551369D01*
X135395646Y-121498149D01*
X135511279Y-121420886D01*
X135609616Y-121322549D01*
X135686879Y-121206916D01*
X135740099Y-121078433D01*
X135767230Y-120942035D01*
X135767230Y-120939446D01*
X135787613Y-120943500D01*
X135926683Y-120943500D01*
X135947066Y-120939446D01*
X135947066Y-120942035D01*
X135974197Y-121078433D01*
X136027417Y-121206916D01*
X136104680Y-121322549D01*
X136203017Y-121420886D01*
X136318650Y-121498149D01*
X136447133Y-121551369D01*
X136583531Y-121578500D01*
X136722601Y-121578500D01*
X136858999Y-121551369D01*
X136987482Y-121498149D01*
X137103115Y-121420886D01*
X137201452Y-121322549D01*
X137278715Y-121206916D01*
X137331935Y-121078433D01*
X137359066Y-120942035D01*
X137359066Y-120802965D01*
X137331935Y-120666567D01*
X137278715Y-120538084D01*
X137201452Y-120422451D01*
X137159066Y-120380065D01*
X137159066Y-119613665D01*
X140690272Y-116082460D01*
X140709573Y-116066620D01*
X140725413Y-116047319D01*
X140725417Y-116047315D01*
X140772805Y-115989572D01*
X140819792Y-115901668D01*
X140848725Y-115806286D01*
X140858495Y-115707093D01*
X140856046Y-115682229D01*
X140856049Y-113376888D01*
X140856058Y-113376796D01*
X140858506Y-113351942D01*
X140856058Y-113327088D01*
X140856058Y-112824533D01*
X141023001Y-112657590D01*
X141023000Y-116063212D01*
X137904683Y-119181530D01*
X137885376Y-119197375D01*
X137822144Y-119274423D01*
X137809434Y-119298202D01*
X137775157Y-119362328D01*
X137746224Y-119457710D01*
X137736455Y-119556902D01*
X137738903Y-119581758D01*
X137738903Y-119745064D01*
X137696516Y-119787451D01*
X137619253Y-119903084D01*
X137566033Y-120031567D01*
X137538902Y-120167965D01*
X137538902Y-120307035D01*
X137566033Y-120443433D01*
X137619253Y-120571916D01*
X137696516Y-120687549D01*
X137794853Y-120785886D01*
X137910486Y-120863149D01*
X138038969Y-120916369D01*
X138175367Y-120943500D01*
X138314437Y-120943500D01*
X138334820Y-120939446D01*
X138334820Y-120942035D01*
X138361951Y-121078433D01*
X138415171Y-121206916D01*
X138492434Y-121322549D01*
X138590771Y-121420886D01*
X138706404Y-121498149D01*
X138834887Y-121551369D01*
X138971285Y-121578500D01*
X139110355Y-121578500D01*
X139246753Y-121551369D01*
X139375236Y-121498149D01*
X139490869Y-121420886D01*
X139589206Y-121322549D01*
X139666469Y-121206916D01*
X139719689Y-121078433D01*
X139746820Y-120942035D01*
X139746820Y-120939446D01*
X139767203Y-120943500D01*
X139906273Y-120943500D01*
X139926656Y-120939446D01*
X139926656Y-120942035D01*
X139953787Y-121078433D01*
X140007007Y-121206916D01*
X140084270Y-121322549D01*
X140182607Y-121420886D01*
X140298240Y-121498149D01*
X140426723Y-121551369D01*
X140563121Y-121578500D01*
X140702191Y-121578500D01*
X140838589Y-121551369D01*
X140967072Y-121498149D01*
X141082705Y-121420886D01*
X141181042Y-121322549D01*
X141258305Y-121206916D01*
X141311525Y-121078433D01*
X141338656Y-120942035D01*
X141338656Y-120802965D01*
X141311525Y-120666567D01*
X141258305Y-120538084D01*
X141181042Y-120422451D01*
X141138656Y-120380065D01*
X141138656Y-119287969D01*
X143219253Y-117207373D01*
X143238554Y-117191533D01*
X143254394Y-117172232D01*
X143254398Y-117172228D01*
X143301786Y-117114485D01*
X143348773Y-117026581D01*
X143377706Y-116931199D01*
X143387476Y-116832006D01*
X143385027Y-116807142D01*
X143385030Y-113572561D01*
X143507091Y-113450500D01*
X143567035Y-113450500D01*
X143703433Y-113423369D01*
X143831916Y-113370149D01*
X143947549Y-113292886D01*
X144045886Y-113194549D01*
X144123149Y-113078916D01*
X144176369Y-112950433D01*
X144203500Y-112814035D01*
X144203500Y-112674965D01*
X144198634Y-112650500D01*
X144265535Y-112650500D01*
X144401933Y-112623369D01*
X144530416Y-112570149D01*
X144646049Y-112492886D01*
X144744386Y-112394549D01*
X144821649Y-112278916D01*
X144874869Y-112150433D01*
X144902000Y-112014035D01*
X144902000Y-111874965D01*
X144874869Y-111738567D01*
X144821649Y-111610084D01*
X144744386Y-111494451D01*
X144646049Y-111396114D01*
X144530416Y-111318851D01*
X144401933Y-111265631D01*
X144265535Y-111238500D01*
X144198634Y-111238500D01*
X144203500Y-111214035D01*
X144203500Y-111074965D01*
X144198634Y-111050500D01*
X144265535Y-111050500D01*
X144401933Y-111023369D01*
X144530416Y-110970149D01*
X144646049Y-110892886D01*
X144744386Y-110794549D01*
X144821649Y-110678916D01*
X144874869Y-110550433D01*
X144902000Y-110414035D01*
X144902000Y-110274965D01*
X144874869Y-110138567D01*
X144821649Y-110010084D01*
X144744386Y-109894451D01*
X144646049Y-109796114D01*
X144530416Y-109718851D01*
X144401933Y-109665631D01*
X144265535Y-109638500D01*
X144126465Y-109638500D01*
X143990067Y-109665631D01*
X143911000Y-109698382D01*
X143911000Y-109690465D01*
X143883869Y-109554067D01*
X143830649Y-109425584D01*
X143753386Y-109309951D01*
X143655049Y-109211614D01*
X143539416Y-109134351D01*
X143410933Y-109081131D01*
X143274535Y-109054000D01*
X143135465Y-109054000D01*
X143111000Y-109058866D01*
X143111000Y-109055465D01*
X143083869Y-108919067D01*
X143030649Y-108790584D01*
X142953386Y-108674951D01*
X142855049Y-108576614D01*
X142739416Y-108499351D01*
X142610933Y-108446131D01*
X142474535Y-108419000D01*
X142335465Y-108419000D01*
X142199067Y-108446131D01*
X142070584Y-108499351D01*
X141954951Y-108576614D01*
X141856614Y-108674951D01*
X141779351Y-108790584D01*
X141726131Y-108919067D01*
X141699000Y-109055465D01*
X141699000Y-109058866D01*
X141674535Y-109054000D01*
X141535465Y-109054000D01*
X141511000Y-109058866D01*
X141511000Y-109055465D01*
X141483869Y-108919067D01*
X141430649Y-108790584D01*
X141353386Y-108674951D01*
X141255049Y-108576614D01*
X141139416Y-108499351D01*
X141010933Y-108446131D01*
X140874535Y-108419000D01*
X140735465Y-108419000D01*
X140599067Y-108446131D01*
X140470584Y-108499351D01*
X140354951Y-108576614D01*
X140256614Y-108674951D01*
X140179351Y-108790584D01*
X140126131Y-108919067D01*
X140099000Y-109055465D01*
X140099000Y-109058866D01*
X140074535Y-109054000D01*
X139935465Y-109054000D01*
X139911000Y-109058866D01*
X139911000Y-109055465D01*
X139883869Y-108919067D01*
X139830649Y-108790584D01*
X139753386Y-108674951D01*
X139655049Y-108576614D01*
X139539416Y-108499351D01*
X139410933Y-108446131D01*
X139274535Y-108419000D01*
X139135465Y-108419000D01*
X138999067Y-108446131D01*
X138870584Y-108499351D01*
X138754951Y-108576614D01*
X138656614Y-108674951D01*
X138579351Y-108790584D01*
X138526131Y-108919067D01*
X138499000Y-109055465D01*
X138499000Y-109058866D01*
X138474535Y-109054000D01*
X138335465Y-109054000D01*
X138311000Y-109058866D01*
X138311000Y-109055465D01*
X138283869Y-108919067D01*
X138230649Y-108790584D01*
X138153386Y-108674951D01*
X138055049Y-108576614D01*
X137939416Y-108499351D01*
X137810933Y-108446131D01*
X137674535Y-108419000D01*
X137535465Y-108419000D01*
X137399067Y-108446131D01*
X137270584Y-108499351D01*
X137154951Y-108576614D01*
X137056614Y-108674951D01*
X136979351Y-108790584D01*
X136926131Y-108919067D01*
X136899000Y-109055465D01*
X136899000Y-109194535D01*
X136926131Y-109330933D01*
X136979351Y-109459416D01*
X137056614Y-109575049D01*
X137099000Y-109617435D01*
X137099001Y-110693950D01*
X137057568Y-110735383D01*
X136962549Y-110640364D01*
X136846916Y-110563101D01*
X136718433Y-110509881D01*
X136582035Y-110482750D01*
X136442965Y-110482750D01*
X136306567Y-110509881D01*
X136178084Y-110563101D01*
X136062451Y-110640364D01*
X136020065Y-110682750D01*
X131924935Y-110682750D01*
X131882549Y-110640364D01*
X131766916Y-110563101D01*
X131638433Y-110509881D01*
X131502035Y-110482750D01*
X131362965Y-110482750D01*
X131226567Y-110509881D01*
X131098084Y-110563101D01*
X130982451Y-110640364D01*
X130884114Y-110738701D01*
X130806851Y-110854334D01*
X130753631Y-110982817D01*
X130726500Y-111119215D01*
X128319000Y-111119215D01*
X128319000Y-106889254D01*
X128321448Y-106864400D01*
X128311678Y-106765207D01*
X128282745Y-106669825D01*
X128235759Y-106581921D01*
X128172527Y-106504873D01*
X128153220Y-106489028D01*
X127706200Y-106042009D01*
X127706200Y-105982065D01*
X127679069Y-105845667D01*
X127625849Y-105717184D01*
X127548586Y-105601551D01*
X127450249Y-105503214D01*
X127334616Y-105425951D01*
X127206133Y-105372731D01*
X127069735Y-105345600D01*
X126930665Y-105345600D01*
X126794267Y-105372731D01*
X126665784Y-105425951D01*
X126550151Y-105503214D01*
X126517600Y-105535765D01*
X126485049Y-105503214D01*
X126369416Y-105425951D01*
X126240933Y-105372731D01*
X126104535Y-105345600D01*
X125965465Y-105345600D01*
X125829067Y-105372731D01*
X125700584Y-105425951D01*
X125584951Y-105503214D01*
X125486614Y-105601551D01*
X125409351Y-105717184D01*
X125400000Y-105739759D01*
X125390649Y-105717184D01*
X125313386Y-105601551D01*
X125215049Y-105503214D01*
X125099416Y-105425951D01*
X124970933Y-105372731D01*
X124834535Y-105345600D01*
X124695465Y-105345600D01*
X124559067Y-105372731D01*
X124430584Y-105425951D01*
X124314951Y-105503214D01*
X124216614Y-105601551D01*
X124139351Y-105717184D01*
X124086131Y-105845667D01*
X124059000Y-105982065D01*
X124059000Y-106042009D01*
X123970544Y-106130464D01*
X123972400Y-106121135D01*
X123972400Y-105982065D01*
X123945269Y-105845667D01*
X123892049Y-105717184D01*
X123814786Y-105601551D01*
X123716449Y-105503214D01*
X123600816Y-105425951D01*
X123472333Y-105372731D01*
X123335935Y-105345600D01*
X123196865Y-105345600D01*
X123060467Y-105372731D01*
X122931984Y-105425951D01*
X122816351Y-105503214D01*
X122718014Y-105601551D01*
X122640751Y-105717184D01*
X122587531Y-105845667D01*
X122560400Y-105982065D01*
X121173348Y-105982065D01*
X121151269Y-105871067D01*
X121098049Y-105742584D01*
X121020786Y-105626951D01*
X120922449Y-105528614D01*
X120806816Y-105451351D01*
X120678333Y-105398131D01*
X120541935Y-105371000D01*
X120402865Y-105371000D01*
X120266467Y-105398131D01*
X120137984Y-105451351D01*
X120022351Y-105528614D01*
X119924014Y-105626951D01*
X119846751Y-105742584D01*
X119801561Y-105851681D01*
X119687733Y-105804531D01*
X119551335Y-105777400D01*
X119412265Y-105777400D01*
X119275867Y-105804531D01*
X119147384Y-105857751D01*
X119031751Y-105935014D01*
X118933414Y-106033351D01*
X118856151Y-106148984D01*
X118802931Y-106277467D01*
X118775800Y-106413865D01*
X100914400Y-106413865D01*
X100914400Y-102698078D01*
X106839000Y-102698078D01*
X106839000Y-102851922D01*
X106869013Y-103002809D01*
X106927887Y-103144942D01*
X106989000Y-103236405D01*
X106989000Y-103583595D01*
X106927887Y-103675058D01*
X106869013Y-103817191D01*
X106839000Y-103968078D01*
X106839000Y-104121922D01*
X106869013Y-104272809D01*
X106927887Y-104414942D01*
X106989001Y-104506406D01*
X106989001Y-104853594D01*
X106927887Y-104945058D01*
X106869013Y-105087191D01*
X106839000Y-105238078D01*
X106839000Y-105391922D01*
X106869013Y-105542809D01*
X106927887Y-105684942D01*
X107013358Y-105812859D01*
X107122141Y-105921642D01*
X107250058Y-106007113D01*
X107392191Y-106065987D01*
X107543078Y-106096000D01*
X107696922Y-106096000D01*
X107847809Y-106065987D01*
X107989942Y-106007113D01*
X108117859Y-105921642D01*
X108226642Y-105812859D01*
X108312113Y-105684942D01*
X108370987Y-105542809D01*
X108401000Y-105391922D01*
X108401000Y-105238078D01*
X108370987Y-105087191D01*
X108312113Y-104945058D01*
X108251000Y-104853595D01*
X108251000Y-104506405D01*
X108312113Y-104414942D01*
X108314004Y-104410376D01*
X132433874Y-104410376D01*
X132513790Y-104618029D01*
X132632682Y-104806101D01*
X132785980Y-104967365D01*
X132967794Y-105095623D01*
X133171136Y-105185946D01*
X133226126Y-105202619D01*
X133401000Y-105076454D01*
X133401000Y-104235500D01*
X132558871Y-104235500D01*
X132433874Y-104410376D01*
X108314004Y-104410376D01*
X108370987Y-104272809D01*
X108401000Y-104121922D01*
X108401000Y-103968078D01*
X108370987Y-103817191D01*
X108366610Y-103806624D01*
X132433874Y-103806624D01*
X132558871Y-103981500D01*
X133401000Y-103981500D01*
X133401000Y-103140546D01*
X133655000Y-103140546D01*
X133655000Y-103981500D01*
X133675000Y-103981500D01*
X133675000Y-104235500D01*
X133655000Y-104235500D01*
X133655000Y-105076454D01*
X133829874Y-105202619D01*
X133884864Y-105185946D01*
X134088206Y-105095623D01*
X134270020Y-104967365D01*
X134358431Y-104874359D01*
X134380690Y-104889232D01*
X134541022Y-104955644D01*
X134711229Y-104989500D01*
X134884771Y-104989500D01*
X135054978Y-104955644D01*
X135215310Y-104889232D01*
X135359605Y-104792818D01*
X135433000Y-104719423D01*
X135506395Y-104792818D01*
X135650690Y-104889232D01*
X135784920Y-104944832D01*
X135732241Y-105009022D01*
X135707126Y-105056009D01*
X135685254Y-105096927D01*
X135656321Y-105192309D01*
X135646552Y-105291501D01*
X135649000Y-105316357D01*
X135648999Y-109307566D01*
X135646614Y-109309951D01*
X135569351Y-109425584D01*
X135516131Y-109554067D01*
X135489000Y-109690465D01*
X135489000Y-109829535D01*
X135516131Y-109965933D01*
X135569351Y-110094416D01*
X135646614Y-110210049D01*
X135744951Y-110308386D01*
X135860584Y-110385649D01*
X135989067Y-110438869D01*
X136125465Y-110466000D01*
X136264535Y-110466000D01*
X136400933Y-110438869D01*
X136529416Y-110385649D01*
X136645049Y-110308386D01*
X136743386Y-110210049D01*
X136820649Y-110094416D01*
X136873869Y-109965933D01*
X136901000Y-109829535D01*
X136901000Y-109690465D01*
X136873869Y-109554067D01*
X136820649Y-109425584D01*
X136743386Y-109309951D01*
X136660999Y-109227564D01*
X136660999Y-106037000D01*
X147265657Y-106037000D01*
X147265657Y-107387000D01*
X147273013Y-107461689D01*
X147294799Y-107533508D01*
X147330178Y-107599696D01*
X147377789Y-107657711D01*
X147435804Y-107705322D01*
X147501992Y-107740701D01*
X147573811Y-107762487D01*
X147648500Y-107769843D01*
X148998500Y-107769843D01*
X149073189Y-107762487D01*
X149145008Y-107740701D01*
X149211196Y-107705322D01*
X149269211Y-107657711D01*
X149316822Y-107599696D01*
X149335854Y-107564090D01*
X149452273Y-107690303D01*
X149607244Y-107803151D01*
X149484273Y-107892697D01*
X149367854Y-108018910D01*
X149348822Y-107983304D01*
X149301211Y-107925289D01*
X149243196Y-107877678D01*
X149177008Y-107842299D01*
X149105189Y-107820513D01*
X149030500Y-107813157D01*
X147680500Y-107813157D01*
X147605811Y-107820513D01*
X147533992Y-107842299D01*
X147467804Y-107877678D01*
X147409789Y-107925289D01*
X147362178Y-107983304D01*
X147326799Y-108049492D01*
X147305013Y-108121311D01*
X147297657Y-108196000D01*
X147297657Y-109546000D01*
X147305013Y-109620689D01*
X147326799Y-109692508D01*
X147362178Y-109758696D01*
X147409789Y-109816711D01*
X147467804Y-109864322D01*
X147533992Y-109899701D01*
X147605811Y-109921487D01*
X147680500Y-109928843D01*
X149030500Y-109928843D01*
X149105189Y-109921487D01*
X149177008Y-109899701D01*
X149243196Y-109864322D01*
X149301211Y-109816711D01*
X149348822Y-109758696D01*
X149367854Y-109723090D01*
X149484273Y-109849303D01*
X149691871Y-110000473D01*
X149924972Y-110108238D01*
X150026100Y-110138910D01*
X150228500Y-110015224D01*
X150228500Y-108998000D01*
X150482500Y-108998000D01*
X150482500Y-110015224D01*
X150684900Y-110138910D01*
X150786028Y-110108238D01*
X151019129Y-110000473D01*
X151226727Y-109849303D01*
X151400844Y-109660537D01*
X151534789Y-109441430D01*
X151623415Y-109200401D01*
X151500585Y-108998000D01*
X150482500Y-108998000D01*
X150228500Y-108998000D01*
X150208500Y-108998000D01*
X150208500Y-108744000D01*
X150228500Y-108744000D01*
X150228500Y-107726776D01*
X150196500Y-107707221D01*
X150196500Y-106839000D01*
X150450500Y-106839000D01*
X150450500Y-107856224D01*
X150482500Y-107875779D01*
X150482500Y-108744000D01*
X151500585Y-108744000D01*
X151623415Y-108541599D01*
X151534789Y-108300570D01*
X151400844Y-108081463D01*
X151226727Y-107892697D01*
X151071756Y-107779849D01*
X151194727Y-107690303D01*
X151368844Y-107501537D01*
X151502789Y-107282430D01*
X151591415Y-107041401D01*
X151468585Y-106839000D01*
X150450500Y-106839000D01*
X150196500Y-106839000D01*
X150176500Y-106839000D01*
X150176500Y-106585000D01*
X150196500Y-106585000D01*
X150196500Y-105567776D01*
X150450500Y-105567776D01*
X150450500Y-106585000D01*
X151468585Y-106585000D01*
X151591415Y-106382599D01*
X151502789Y-106141570D01*
X151368844Y-105922463D01*
X151194727Y-105733697D01*
X150987129Y-105582527D01*
X150754028Y-105474762D01*
X150652900Y-105444090D01*
X150450500Y-105567776D01*
X150196500Y-105567776D01*
X149994100Y-105444090D01*
X149892972Y-105474762D01*
X149659871Y-105582527D01*
X149452273Y-105733697D01*
X149335854Y-105859910D01*
X149316822Y-105824304D01*
X149269211Y-105766289D01*
X149211196Y-105718678D01*
X149145008Y-105683299D01*
X149073189Y-105661513D01*
X148998500Y-105654157D01*
X147648500Y-105654157D01*
X147573811Y-105661513D01*
X147501992Y-105683299D01*
X147435804Y-105718678D01*
X147377789Y-105766289D01*
X147330178Y-105824304D01*
X147294799Y-105890492D01*
X147273013Y-105962311D01*
X147265657Y-106037000D01*
X136660999Y-106037000D01*
X136660999Y-105501092D01*
X137185638Y-104976453D01*
X137251229Y-104989500D01*
X137424771Y-104989500D01*
X137594978Y-104955644D01*
X137755310Y-104889232D01*
X137813568Y-104850306D01*
X137837289Y-104879211D01*
X137895304Y-104926822D01*
X137961492Y-104962201D01*
X138033311Y-104983987D01*
X138108000Y-104991343D01*
X139108000Y-104991343D01*
X139182689Y-104983987D01*
X139254508Y-104962201D01*
X139320696Y-104926822D01*
X139378711Y-104879211D01*
X139426322Y-104821196D01*
X139461701Y-104755008D01*
X139483487Y-104683189D01*
X139490843Y-104608500D01*
X139490843Y-103608500D01*
X139483487Y-103533811D01*
X139461701Y-103461992D01*
X139426322Y-103395804D01*
X139378711Y-103337789D01*
X139320696Y-103290178D01*
X139254508Y-103254799D01*
X139182689Y-103233013D01*
X139108000Y-103225657D01*
X138108000Y-103225657D01*
X138033311Y-103233013D01*
X137961492Y-103254799D01*
X137895304Y-103290178D01*
X137837289Y-103337789D01*
X137813568Y-103366694D01*
X137755310Y-103327768D01*
X137594978Y-103261356D01*
X137424771Y-103227500D01*
X137251229Y-103227500D01*
X137081022Y-103261356D01*
X136920690Y-103327768D01*
X136776395Y-103424182D01*
X136703000Y-103497577D01*
X136629605Y-103424182D01*
X136485310Y-103327768D01*
X136324978Y-103261356D01*
X136154771Y-103227500D01*
X135981229Y-103227500D01*
X135811022Y-103261356D01*
X135650690Y-103327768D01*
X135506395Y-103424182D01*
X135433000Y-103497577D01*
X135359605Y-103424182D01*
X135215310Y-103327768D01*
X135054978Y-103261356D01*
X134884771Y-103227500D01*
X134711229Y-103227500D01*
X134541022Y-103261356D01*
X134380690Y-103327768D01*
X134358431Y-103342641D01*
X134270020Y-103249635D01*
X134088206Y-103121377D01*
X133884864Y-103031054D01*
X133829874Y-103014381D01*
X133655000Y-103140546D01*
X133401000Y-103140546D01*
X133226126Y-103014381D01*
X133171136Y-103031054D01*
X132967794Y-103121377D01*
X132785980Y-103249635D01*
X132632682Y-103410899D01*
X132513790Y-103598971D01*
X132433874Y-103806624D01*
X108366610Y-103806624D01*
X108312113Y-103675058D01*
X108251000Y-103583595D01*
X108251000Y-103236405D01*
X108312113Y-103144942D01*
X108370987Y-103002809D01*
X108401000Y-102851922D01*
X108401000Y-102735000D01*
X147202157Y-102735000D01*
X147202157Y-104085000D01*
X147209513Y-104159689D01*
X147231299Y-104231508D01*
X147266678Y-104297696D01*
X147314289Y-104355711D01*
X147372304Y-104403322D01*
X147438492Y-104438701D01*
X147510311Y-104460487D01*
X147585000Y-104467843D01*
X148935000Y-104467843D01*
X149009689Y-104460487D01*
X149081508Y-104438701D01*
X149147696Y-104403322D01*
X149205711Y-104355711D01*
X149253322Y-104297696D01*
X149272354Y-104262090D01*
X149388773Y-104388303D01*
X149596371Y-104539473D01*
X149829472Y-104647238D01*
X149930600Y-104677910D01*
X150133000Y-104554224D01*
X150133000Y-103537000D01*
X150387000Y-103537000D01*
X150387000Y-104554224D01*
X150589400Y-104677910D01*
X150690528Y-104647238D01*
X150923629Y-104539473D01*
X151131227Y-104388303D01*
X151305344Y-104199537D01*
X151439289Y-103980430D01*
X151527915Y-103739401D01*
X151405085Y-103537000D01*
X150387000Y-103537000D01*
X150133000Y-103537000D01*
X150113000Y-103537000D01*
X150113000Y-103283000D01*
X150133000Y-103283000D01*
X150133000Y-102265776D01*
X150387000Y-102265776D01*
X150387000Y-103283000D01*
X151405085Y-103283000D01*
X151527915Y-103080599D01*
X151439289Y-102839570D01*
X151305344Y-102620463D01*
X151131227Y-102431697D01*
X150923629Y-102280527D01*
X150690528Y-102172762D01*
X150589400Y-102142090D01*
X150387000Y-102265776D01*
X150133000Y-102265776D01*
X149930600Y-102142090D01*
X149829472Y-102172762D01*
X149596371Y-102280527D01*
X149388773Y-102431697D01*
X149272354Y-102557910D01*
X149253322Y-102522304D01*
X149205711Y-102464289D01*
X149147696Y-102416678D01*
X149081508Y-102381299D01*
X149009689Y-102359513D01*
X148935000Y-102352157D01*
X147585000Y-102352157D01*
X147510311Y-102359513D01*
X147438492Y-102381299D01*
X147372304Y-102416678D01*
X147314289Y-102464289D01*
X147266678Y-102522304D01*
X147231299Y-102588492D01*
X147209513Y-102660311D01*
X147202157Y-102735000D01*
X108401000Y-102735000D01*
X108401000Y-102698078D01*
X108370987Y-102547191D01*
X108312113Y-102405058D01*
X108260722Y-102328146D01*
X108452869Y-102136000D01*
X126487995Y-102136000D01*
X126579458Y-102197113D01*
X126721591Y-102255987D01*
X126872478Y-102286000D01*
X127026322Y-102286000D01*
X127177209Y-102255987D01*
X127319342Y-102197113D01*
X127410805Y-102136000D01*
X137638595Y-102136000D01*
X137730058Y-102197113D01*
X137872191Y-102255987D01*
X138023078Y-102286000D01*
X138176922Y-102286000D01*
X138327809Y-102255987D01*
X138469942Y-102197113D01*
X138561405Y-102136000D01*
X138908595Y-102136000D01*
X139000058Y-102197113D01*
X139142191Y-102255987D01*
X139293078Y-102286000D01*
X139446922Y-102286000D01*
X139597809Y-102255987D01*
X139739942Y-102197113D01*
X139831405Y-102136000D01*
X140178595Y-102136000D01*
X140270058Y-102197113D01*
X140412191Y-102255987D01*
X140563078Y-102286000D01*
X140716922Y-102286000D01*
X140867809Y-102255987D01*
X141009942Y-102197113D01*
X141137859Y-102111642D01*
X141246642Y-102002859D01*
X141332113Y-101874942D01*
X141390987Y-101732809D01*
X141421000Y-101581922D01*
X141421000Y-101428078D01*
X141390987Y-101277191D01*
X141332113Y-101135058D01*
X141246642Y-101007141D01*
X141137859Y-100898358D01*
X141009942Y-100812887D01*
X140867809Y-100754013D01*
X140716922Y-100724000D01*
X140563078Y-100724000D01*
X140412191Y-100754013D01*
X140270058Y-100812887D01*
X140178595Y-100874000D01*
X139831405Y-100874000D01*
X139739942Y-100812887D01*
X139597809Y-100754013D01*
X139446922Y-100724000D01*
X139293078Y-100724000D01*
X139142191Y-100754013D01*
X139000058Y-100812887D01*
X138908595Y-100874000D01*
X138561405Y-100874000D01*
X138469942Y-100812887D01*
X138327809Y-100754013D01*
X138176922Y-100724000D01*
X138023078Y-100724000D01*
X137872191Y-100754013D01*
X137730058Y-100812887D01*
X137638595Y-100874000D01*
X127410805Y-100874000D01*
X127319342Y-100812887D01*
X127177209Y-100754013D01*
X127026322Y-100724000D01*
X126872478Y-100724000D01*
X126721591Y-100754013D01*
X126579458Y-100812887D01*
X126487995Y-100874000D01*
X108222487Y-100874000D01*
X108191499Y-100870948D01*
X108160511Y-100874000D01*
X108160502Y-100874000D01*
X108067802Y-100883130D01*
X107948858Y-100919211D01*
X107839239Y-100977804D01*
X107743157Y-101056657D01*
X107723399Y-101080732D01*
X107195737Y-101608395D01*
X107171657Y-101628157D01*
X107092804Y-101724240D01*
X107034211Y-101833859D01*
X106998130Y-101952803D01*
X106989000Y-102045503D01*
X106989000Y-102045510D01*
X106985948Y-102076500D01*
X106989000Y-102107490D01*
X106989000Y-102313595D01*
X106927887Y-102405058D01*
X106869013Y-102547191D01*
X106839000Y-102698078D01*
X100914400Y-102698078D01*
X100914400Y-99981000D01*
X153213000Y-99981000D01*
X153213000Y-124111000D01*
M02*
