G04 #@! TF.GenerationSoftware,KiCad,Pcbnew,(5.1.6)-1*
G04 #@! TF.CreationDate,2020-10-07T22:12:15+02:00*
G04 #@! TF.ProjectId,PeugeoutTypeCDisplayHack,50657567-656f-4757-9454-797065434469,1*
G04 #@! TF.SameCoordinates,Original*
G04 #@! TF.FileFunction,Soldermask,Top*
G04 #@! TF.FilePolarity,Negative*
%FSLAX46Y46*%
G04 Gerber Fmt 4.6, Leading zero omitted, Abs format (unit mm)*
G04 Created by KiCad (PCBNEW (5.1.6)-1) date 2020-10-07 22:12:15*
%MOMM*%
%LPD*%
G01*
G04 APERTURE LIST*
%ADD10R,2.100000X3.100000*%
%ADD11R,0.400000X1.350000*%
%ADD12R,1.450000X1.450000*%
%ADD13O,1.450000X1.450000*%
%ADD14R,1.100000X1.100000*%
%ADD15O,1.100000X1.100000*%
%ADD16R,1.600000X2.100000*%
%ADD17R,3.900000X2.100000*%
%ADD18R,0.600000X2.600000*%
%ADD19R,0.650000X1.600000*%
%ADD20R,1.600000X0.650000*%
G04 APERTURE END LIST*
D10*
X111060000Y-102177000D03*
X130940000Y-102177000D03*
D11*
X113750000Y-104502000D03*
X114250000Y-104502000D03*
X114750000Y-104502000D03*
X115250000Y-104502000D03*
X115750000Y-104502000D03*
X116250000Y-104502000D03*
X116750000Y-104502000D03*
X117250000Y-104502000D03*
X117750000Y-104502000D03*
X118250000Y-104502000D03*
X118750000Y-104502000D03*
X119250000Y-104502000D03*
X119750000Y-104502000D03*
X120250000Y-104502000D03*
X120750000Y-104502000D03*
X121250000Y-104502000D03*
X121750000Y-104502000D03*
X122250000Y-104502000D03*
X122750000Y-104502000D03*
X123250000Y-104502000D03*
X123750000Y-104502000D03*
X124250000Y-104502000D03*
X124750000Y-104502000D03*
X125250000Y-104502000D03*
X125750000Y-104502000D03*
X126250000Y-104502000D03*
X126750000Y-104502000D03*
X127250000Y-104502000D03*
X127750000Y-104502000D03*
X128250000Y-104502000D03*
D12*
X148323500Y-106712000D03*
D13*
X150323500Y-106712000D03*
D12*
X148355500Y-108871000D03*
D13*
X150355500Y-108871000D03*
G36*
G01*
X143090000Y-102752544D02*
X143090000Y-104067456D01*
G75*
G02*
X142822456Y-104335000I-267544J0D01*
G01*
X141832544Y-104335000D01*
G75*
G02*
X141565000Y-104067456I0J267544D01*
G01*
X141565000Y-102752544D01*
G75*
G02*
X141832544Y-102485000I267544J0D01*
G01*
X142822456Y-102485000D01*
G75*
G02*
X143090000Y-102752544I0J-267544D01*
G01*
G37*
G36*
G01*
X146065000Y-102752544D02*
X146065000Y-104067456D01*
G75*
G02*
X145797456Y-104335000I-267544J0D01*
G01*
X144807544Y-104335000D01*
G75*
G02*
X144540000Y-104067456I0J267544D01*
G01*
X144540000Y-102752544D01*
G75*
G02*
X144807544Y-102485000I267544J0D01*
G01*
X145797456Y-102485000D01*
G75*
G02*
X146065000Y-102752544I0J-267544D01*
G01*
G37*
D12*
X148260000Y-103410000D03*
D13*
X150260000Y-103410000D03*
G36*
G01*
X149447500Y-118806738D02*
X149447500Y-119763262D01*
G75*
G02*
X149175762Y-120035000I-271738J0D01*
G01*
X148469238Y-120035000D01*
G75*
G02*
X148197500Y-119763262I0J271738D01*
G01*
X148197500Y-118806738D01*
G75*
G02*
X148469238Y-118535000I271738J0D01*
G01*
X149175762Y-118535000D01*
G75*
G02*
X149447500Y-118806738I0J-271738D01*
G01*
G37*
G36*
G01*
X151497500Y-118806738D02*
X151497500Y-119763262D01*
G75*
G02*
X151225762Y-120035000I-271738J0D01*
G01*
X150519238Y-120035000D01*
G75*
G02*
X150247500Y-119763262I0J271738D01*
G01*
X150247500Y-118806738D01*
G75*
G02*
X150519238Y-118535000I271738J0D01*
G01*
X151225762Y-118535000D01*
G75*
G02*
X151497500Y-118806738I0J-271738D01*
G01*
G37*
D14*
X138608000Y-104108500D03*
D15*
X137338000Y-104108500D03*
X136068000Y-104108500D03*
X134798000Y-104108500D03*
X133528000Y-104108500D03*
G36*
G01*
X118650000Y-116107500D02*
X118650000Y-117065000D01*
G75*
G02*
X118378750Y-117336250I-271250J0D01*
G01*
X117671250Y-117336250D01*
G75*
G02*
X117400000Y-117065000I0J271250D01*
G01*
X117400000Y-116107500D01*
G75*
G02*
X117671250Y-115836250I271250J0D01*
G01*
X118378750Y-115836250D01*
G75*
G02*
X118650000Y-116107500I0J-271250D01*
G01*
G37*
G36*
G01*
X120700000Y-116107988D02*
X120700000Y-117064512D01*
G75*
G02*
X120428262Y-117336250I-271738J0D01*
G01*
X119721738Y-117336250D01*
G75*
G02*
X119450000Y-117064512I0J271738D01*
G01*
X119450000Y-116107988D01*
G75*
G02*
X119721738Y-115836250I271738J0D01*
G01*
X120428262Y-115836250D01*
G75*
G02*
X120700000Y-116107988I0J-271738D01*
G01*
G37*
G36*
G01*
X124530000Y-119763262D02*
X124530000Y-118806738D01*
G75*
G02*
X124801738Y-118535000I271738J0D01*
G01*
X125508262Y-118535000D01*
G75*
G02*
X125780000Y-118806738I0J-271738D01*
G01*
X125780000Y-119763262D01*
G75*
G02*
X125508262Y-120035000I-271738J0D01*
G01*
X124801738Y-120035000D01*
G75*
G02*
X124530000Y-119763262I0J271738D01*
G01*
G37*
G36*
G01*
X122480000Y-119763262D02*
X122480000Y-118806738D01*
G75*
G02*
X122751738Y-118535000I271738J0D01*
G01*
X123458262Y-118535000D01*
G75*
G02*
X123730000Y-118806738I0J-271738D01*
G01*
X123730000Y-119763262D01*
G75*
G02*
X123458262Y-120035000I-271738J0D01*
G01*
X122751738Y-120035000D01*
G75*
G02*
X122480000Y-119763262I0J271738D01*
G01*
G37*
G36*
G01*
X124530000Y-114365762D02*
X124530000Y-113409238D01*
G75*
G02*
X124801738Y-113137500I271738J0D01*
G01*
X125508262Y-113137500D01*
G75*
G02*
X125780000Y-113409238I0J-271738D01*
G01*
X125780000Y-114365762D01*
G75*
G02*
X125508262Y-114637500I-271738J0D01*
G01*
X124801738Y-114637500D01*
G75*
G02*
X124530000Y-114365762I0J271738D01*
G01*
G37*
G36*
G01*
X122480000Y-114365762D02*
X122480000Y-113409238D01*
G75*
G02*
X122751738Y-113137500I271738J0D01*
G01*
X123458262Y-113137500D01*
G75*
G02*
X123730000Y-113409238I0J-271738D01*
G01*
X123730000Y-114365762D01*
G75*
G02*
X123458262Y-114637500I-271738J0D01*
G01*
X122751738Y-114637500D01*
G75*
G02*
X122480000Y-114365762I0J271738D01*
G01*
G37*
G36*
G01*
X124530000Y-117065000D02*
X124530000Y-116107500D01*
G75*
G02*
X124801250Y-115836250I271250J0D01*
G01*
X125508750Y-115836250D01*
G75*
G02*
X125780000Y-116107500I0J-271250D01*
G01*
X125780000Y-117065000D01*
G75*
G02*
X125508750Y-117336250I-271250J0D01*
G01*
X124801250Y-117336250D01*
G75*
G02*
X124530000Y-117065000I0J271250D01*
G01*
G37*
G36*
G01*
X122480000Y-117064512D02*
X122480000Y-116107988D01*
G75*
G02*
X122751738Y-115836250I271738J0D01*
G01*
X123458262Y-115836250D01*
G75*
G02*
X123730000Y-116107988I0J-271738D01*
G01*
X123730000Y-117064512D01*
G75*
G02*
X123458262Y-117336250I-271738J0D01*
G01*
X122751738Y-117336250D01*
G75*
G02*
X122480000Y-117064512I0J271738D01*
G01*
G37*
G36*
G01*
X124530000Y-111667012D02*
X124530000Y-110710488D01*
G75*
G02*
X124801738Y-110438750I271738J0D01*
G01*
X125508262Y-110438750D01*
G75*
G02*
X125780000Y-110710488I0J-271738D01*
G01*
X125780000Y-111667012D01*
G75*
G02*
X125508262Y-111938750I-271738J0D01*
G01*
X124801738Y-111938750D01*
G75*
G02*
X124530000Y-111667012I0J271738D01*
G01*
G37*
G36*
G01*
X122480000Y-111667012D02*
X122480000Y-110710488D01*
G75*
G02*
X122751738Y-110438750I271738J0D01*
G01*
X123458262Y-110438750D01*
G75*
G02*
X123730000Y-110710488I0J-271738D01*
G01*
X123730000Y-111667012D01*
G75*
G02*
X123458262Y-111938750I-271738J0D01*
G01*
X122751738Y-111938750D01*
G75*
G02*
X122480000Y-111667012I0J271738D01*
G01*
G37*
G36*
G01*
X129610000Y-117064512D02*
X129610000Y-116107988D01*
G75*
G02*
X129881738Y-115836250I271738J0D01*
G01*
X130588262Y-115836250D01*
G75*
G02*
X130860000Y-116107988I0J-271738D01*
G01*
X130860000Y-117064512D01*
G75*
G02*
X130588262Y-117336250I-271738J0D01*
G01*
X129881738Y-117336250D01*
G75*
G02*
X129610000Y-117064512I0J271738D01*
G01*
G37*
G36*
G01*
X127560000Y-117064512D02*
X127560000Y-116107988D01*
G75*
G02*
X127831738Y-115836250I271738J0D01*
G01*
X128538262Y-115836250D01*
G75*
G02*
X128810000Y-116107988I0J-271738D01*
G01*
X128810000Y-117064512D01*
G75*
G02*
X128538262Y-117336250I-271738J0D01*
G01*
X127831738Y-117336250D01*
G75*
G02*
X127560000Y-117064512I0J271738D01*
G01*
G37*
G36*
G01*
X129610000Y-119763262D02*
X129610000Y-118806738D01*
G75*
G02*
X129881738Y-118535000I271738J0D01*
G01*
X130588262Y-118535000D01*
G75*
G02*
X130860000Y-118806738I0J-271738D01*
G01*
X130860000Y-119763262D01*
G75*
G02*
X130588262Y-120035000I-271738J0D01*
G01*
X129881738Y-120035000D01*
G75*
G02*
X129610000Y-119763262I0J271738D01*
G01*
G37*
G36*
G01*
X127560000Y-119763262D02*
X127560000Y-118806738D01*
G75*
G02*
X127831738Y-118535000I271738J0D01*
G01*
X128538262Y-118535000D01*
G75*
G02*
X128810000Y-118806738I0J-271738D01*
G01*
X128810000Y-119763262D01*
G75*
G02*
X128538262Y-120035000I-271738J0D01*
G01*
X127831738Y-120035000D01*
G75*
G02*
X127560000Y-119763262I0J271738D01*
G01*
G37*
G36*
G01*
X129610000Y-111667012D02*
X129610000Y-110710488D01*
G75*
G02*
X129881738Y-110438750I271738J0D01*
G01*
X130588262Y-110438750D01*
G75*
G02*
X130860000Y-110710488I0J-271738D01*
G01*
X130860000Y-111667012D01*
G75*
G02*
X130588262Y-111938750I-271738J0D01*
G01*
X129881738Y-111938750D01*
G75*
G02*
X129610000Y-111667012I0J271738D01*
G01*
G37*
G36*
G01*
X127560000Y-111667012D02*
X127560000Y-110710488D01*
G75*
G02*
X127831738Y-110438750I271738J0D01*
G01*
X128538262Y-110438750D01*
G75*
G02*
X128810000Y-110710488I0J-271738D01*
G01*
X128810000Y-111667012D01*
G75*
G02*
X128538262Y-111938750I-271738J0D01*
G01*
X127831738Y-111938750D01*
G75*
G02*
X127560000Y-111667012I0J271738D01*
G01*
G37*
G36*
G01*
X129610000Y-114366250D02*
X129610000Y-113408750D01*
G75*
G02*
X129881250Y-113137500I271250J0D01*
G01*
X130588750Y-113137500D01*
G75*
G02*
X130860000Y-113408750I0J-271250D01*
G01*
X130860000Y-114366250D01*
G75*
G02*
X130588750Y-114637500I-271250J0D01*
G01*
X129881250Y-114637500D01*
G75*
G02*
X129610000Y-114366250I0J271250D01*
G01*
G37*
G36*
G01*
X127560000Y-114365762D02*
X127560000Y-113409238D01*
G75*
G02*
X127831738Y-113137500I271738J0D01*
G01*
X128538262Y-113137500D01*
G75*
G02*
X128810000Y-113409238I0J-271738D01*
G01*
X128810000Y-114365762D01*
G75*
G02*
X128538262Y-114637500I-271738J0D01*
G01*
X127831738Y-114637500D01*
G75*
G02*
X127560000Y-114365762I0J271738D01*
G01*
G37*
G36*
G01*
X118650000Y-108011738D02*
X118650000Y-108968262D01*
G75*
G02*
X118378262Y-109240000I-271738J0D01*
G01*
X117671738Y-109240000D01*
G75*
G02*
X117400000Y-108968262I0J271738D01*
G01*
X117400000Y-108011738D01*
G75*
G02*
X117671738Y-107740000I271738J0D01*
G01*
X118378262Y-107740000D01*
G75*
G02*
X118650000Y-108011738I0J-271738D01*
G01*
G37*
G36*
G01*
X120700000Y-108011738D02*
X120700000Y-108968262D01*
G75*
G02*
X120428262Y-109240000I-271738J0D01*
G01*
X119721738Y-109240000D01*
G75*
G02*
X119450000Y-108968262I0J271738D01*
G01*
X119450000Y-108011738D01*
G75*
G02*
X119721738Y-107740000I271738J0D01*
G01*
X120428262Y-107740000D01*
G75*
G02*
X120700000Y-108011738I0J-271738D01*
G01*
G37*
G36*
G01*
X113570000Y-108011738D02*
X113570000Y-108968262D01*
G75*
G02*
X113298262Y-109240000I-271738J0D01*
G01*
X112591738Y-109240000D01*
G75*
G02*
X112320000Y-108968262I0J271738D01*
G01*
X112320000Y-108011738D01*
G75*
G02*
X112591738Y-107740000I271738J0D01*
G01*
X113298262Y-107740000D01*
G75*
G02*
X113570000Y-108011738I0J-271738D01*
G01*
G37*
G36*
G01*
X115620000Y-108011738D02*
X115620000Y-108968262D01*
G75*
G02*
X115348262Y-109240000I-271738J0D01*
G01*
X114641738Y-109240000D01*
G75*
G02*
X114370000Y-108968262I0J271738D01*
G01*
X114370000Y-108011738D01*
G75*
G02*
X114641738Y-107740000I271738J0D01*
G01*
X115348262Y-107740000D01*
G75*
G02*
X115620000Y-108011738I0J-271738D01*
G01*
G37*
G36*
G01*
X118650000Y-118806250D02*
X118650000Y-119763750D01*
G75*
G02*
X118378750Y-120035000I-271250J0D01*
G01*
X117671250Y-120035000D01*
G75*
G02*
X117400000Y-119763750I0J271250D01*
G01*
X117400000Y-118806250D01*
G75*
G02*
X117671250Y-118535000I271250J0D01*
G01*
X118378750Y-118535000D01*
G75*
G02*
X118650000Y-118806250I0J-271250D01*
G01*
G37*
G36*
G01*
X120700000Y-118806738D02*
X120700000Y-119763262D01*
G75*
G02*
X120428262Y-120035000I-271738J0D01*
G01*
X119721738Y-120035000D01*
G75*
G02*
X119450000Y-119763262I0J271738D01*
G01*
X119450000Y-118806738D01*
G75*
G02*
X119721738Y-118535000I271738J0D01*
G01*
X120428262Y-118535000D01*
G75*
G02*
X120700000Y-118806738I0J-271738D01*
G01*
G37*
G36*
G01*
X118650000Y-113408750D02*
X118650000Y-114366250D01*
G75*
G02*
X118378750Y-114637500I-271250J0D01*
G01*
X117671250Y-114637500D01*
G75*
G02*
X117400000Y-114366250I0J271250D01*
G01*
X117400000Y-113408750D01*
G75*
G02*
X117671250Y-113137500I271250J0D01*
G01*
X118378750Y-113137500D01*
G75*
G02*
X118650000Y-113408750I0J-271250D01*
G01*
G37*
G36*
G01*
X120700000Y-113409238D02*
X120700000Y-114365762D01*
G75*
G02*
X120428262Y-114637500I-271738J0D01*
G01*
X119721738Y-114637500D01*
G75*
G02*
X119450000Y-114365762I0J271738D01*
G01*
X119450000Y-113409238D01*
G75*
G02*
X119721738Y-113137500I271738J0D01*
G01*
X120428262Y-113137500D01*
G75*
G02*
X120700000Y-113409238I0J-271738D01*
G01*
G37*
G36*
G01*
X124530000Y-108968262D02*
X124530000Y-108011738D01*
G75*
G02*
X124801738Y-107740000I271738J0D01*
G01*
X125508262Y-107740000D01*
G75*
G02*
X125780000Y-108011738I0J-271738D01*
G01*
X125780000Y-108968262D01*
G75*
G02*
X125508262Y-109240000I-271738J0D01*
G01*
X124801738Y-109240000D01*
G75*
G02*
X124530000Y-108968262I0J271738D01*
G01*
G37*
G36*
G01*
X122480000Y-108968262D02*
X122480000Y-108011738D01*
G75*
G02*
X122751738Y-107740000I271738J0D01*
G01*
X123458262Y-107740000D01*
G75*
G02*
X123730000Y-108011738I0J-271738D01*
G01*
X123730000Y-108968262D01*
G75*
G02*
X123458262Y-109240000I-271738J0D01*
G01*
X122751738Y-109240000D01*
G75*
G02*
X122480000Y-108968262I0J271738D01*
G01*
G37*
G36*
G01*
X118650000Y-110710000D02*
X118650000Y-111667500D01*
G75*
G02*
X118378750Y-111938750I-271250J0D01*
G01*
X117671250Y-111938750D01*
G75*
G02*
X117400000Y-111667500I0J271250D01*
G01*
X117400000Y-110710000D01*
G75*
G02*
X117671250Y-110438750I271250J0D01*
G01*
X118378750Y-110438750D01*
G75*
G02*
X118650000Y-110710000I0J-271250D01*
G01*
G37*
G36*
G01*
X120700000Y-110710488D02*
X120700000Y-111667012D01*
G75*
G02*
X120428262Y-111938750I-271738J0D01*
G01*
X119721738Y-111938750D01*
G75*
G02*
X119450000Y-111667012I0J271738D01*
G01*
X119450000Y-110710488D01*
G75*
G02*
X119721738Y-110438750I271738J0D01*
G01*
X120428262Y-110438750D01*
G75*
G02*
X120700000Y-110710488I0J-271738D01*
G01*
G37*
G36*
G01*
X149447500Y-110742238D02*
X149447500Y-111698762D01*
G75*
G02*
X149175762Y-111970500I-271738J0D01*
G01*
X148469238Y-111970500D01*
G75*
G02*
X148197500Y-111698762I0J271738D01*
G01*
X148197500Y-110742238D01*
G75*
G02*
X148469238Y-110470500I271738J0D01*
G01*
X149175762Y-110470500D01*
G75*
G02*
X149447500Y-110742238I0J-271738D01*
G01*
G37*
G36*
G01*
X151497500Y-110742238D02*
X151497500Y-111698762D01*
G75*
G02*
X151225762Y-111970500I-271738J0D01*
G01*
X150519238Y-111970500D01*
G75*
G02*
X150247500Y-111698762I0J271738D01*
G01*
X150247500Y-110742238D01*
G75*
G02*
X150519238Y-110470500I271738J0D01*
G01*
X151225762Y-110470500D01*
G75*
G02*
X151497500Y-110742238I0J-271738D01*
G01*
G37*
G36*
G01*
X149447500Y-113345738D02*
X149447500Y-114302262D01*
G75*
G02*
X149175762Y-114574000I-271738J0D01*
G01*
X148469238Y-114574000D01*
G75*
G02*
X148197500Y-114302262I0J271738D01*
G01*
X148197500Y-113345738D01*
G75*
G02*
X148469238Y-113074000I271738J0D01*
G01*
X149175762Y-113074000D01*
G75*
G02*
X149447500Y-113345738I0J-271738D01*
G01*
G37*
G36*
G01*
X151497500Y-113345738D02*
X151497500Y-114302262D01*
G75*
G02*
X151225762Y-114574000I-271738J0D01*
G01*
X150519238Y-114574000D01*
G75*
G02*
X150247500Y-114302262I0J271738D01*
G01*
X150247500Y-113345738D01*
G75*
G02*
X150519238Y-113074000I271738J0D01*
G01*
X151225762Y-113074000D01*
G75*
G02*
X151497500Y-113345738I0J-271738D01*
G01*
G37*
G36*
G01*
X150247500Y-117064512D02*
X150247500Y-116107988D01*
G75*
G02*
X150519238Y-115836250I271738J0D01*
G01*
X151225762Y-115836250D01*
G75*
G02*
X151497500Y-116107988I0J-271738D01*
G01*
X151497500Y-117064512D01*
G75*
G02*
X151225762Y-117336250I-271738J0D01*
G01*
X150519238Y-117336250D01*
G75*
G02*
X150247500Y-117064512I0J271738D01*
G01*
G37*
G36*
G01*
X148197500Y-117064512D02*
X148197500Y-116107988D01*
G75*
G02*
X148469238Y-115836250I271738J0D01*
G01*
X149175762Y-115836250D01*
G75*
G02*
X149447500Y-116107988I0J-271738D01*
G01*
X149447500Y-117064512D01*
G75*
G02*
X149175762Y-117336250I-271738J0D01*
G01*
X148469238Y-117336250D01*
G75*
G02*
X148197500Y-117064512I0J271738D01*
G01*
G37*
G36*
G01*
X114370000Y-111667012D02*
X114370000Y-110710488D01*
G75*
G02*
X114641738Y-110438750I271738J0D01*
G01*
X115348262Y-110438750D01*
G75*
G02*
X115620000Y-110710488I0J-271738D01*
G01*
X115620000Y-111667012D01*
G75*
G02*
X115348262Y-111938750I-271738J0D01*
G01*
X114641738Y-111938750D01*
G75*
G02*
X114370000Y-111667012I0J271738D01*
G01*
G37*
G36*
G01*
X112320000Y-111667012D02*
X112320000Y-110710488D01*
G75*
G02*
X112591738Y-110438750I271738J0D01*
G01*
X113298262Y-110438750D01*
G75*
G02*
X113570000Y-110710488I0J-271738D01*
G01*
X113570000Y-111667012D01*
G75*
G02*
X113298262Y-111938750I-271738J0D01*
G01*
X112591738Y-111938750D01*
G75*
G02*
X112320000Y-111667012I0J271738D01*
G01*
G37*
G36*
G01*
X114370000Y-114365762D02*
X114370000Y-113409238D01*
G75*
G02*
X114641738Y-113137500I271738J0D01*
G01*
X115348262Y-113137500D01*
G75*
G02*
X115620000Y-113409238I0J-271738D01*
G01*
X115620000Y-114365762D01*
G75*
G02*
X115348262Y-114637500I-271738J0D01*
G01*
X114641738Y-114637500D01*
G75*
G02*
X114370000Y-114365762I0J271738D01*
G01*
G37*
G36*
G01*
X112320000Y-114365762D02*
X112320000Y-113409238D01*
G75*
G02*
X112591738Y-113137500I271738J0D01*
G01*
X113298262Y-113137500D01*
G75*
G02*
X113570000Y-113409238I0J-271738D01*
G01*
X113570000Y-114365762D01*
G75*
G02*
X113298262Y-114637500I-271738J0D01*
G01*
X112591738Y-114637500D01*
G75*
G02*
X112320000Y-114365762I0J271738D01*
G01*
G37*
G36*
G01*
X114370000Y-117064512D02*
X114370000Y-116107988D01*
G75*
G02*
X114641738Y-115836250I271738J0D01*
G01*
X115348262Y-115836250D01*
G75*
G02*
X115620000Y-116107988I0J-271738D01*
G01*
X115620000Y-117064512D01*
G75*
G02*
X115348262Y-117336250I-271738J0D01*
G01*
X114641738Y-117336250D01*
G75*
G02*
X114370000Y-117064512I0J271738D01*
G01*
G37*
G36*
G01*
X112320000Y-117064512D02*
X112320000Y-116107988D01*
G75*
G02*
X112591738Y-115836250I271738J0D01*
G01*
X113298262Y-115836250D01*
G75*
G02*
X113570000Y-116107988I0J-271738D01*
G01*
X113570000Y-117064512D01*
G75*
G02*
X113298262Y-117336250I-271738J0D01*
G01*
X112591738Y-117336250D01*
G75*
G02*
X112320000Y-117064512I0J271738D01*
G01*
G37*
G36*
G01*
X114370000Y-119763262D02*
X114370000Y-118806738D01*
G75*
G02*
X114641738Y-118535000I271738J0D01*
G01*
X115348262Y-118535000D01*
G75*
G02*
X115620000Y-118806738I0J-271738D01*
G01*
X115620000Y-119763262D01*
G75*
G02*
X115348262Y-120035000I-271738J0D01*
G01*
X114641738Y-120035000D01*
G75*
G02*
X114370000Y-119763262I0J271738D01*
G01*
G37*
G36*
G01*
X112320000Y-119763262D02*
X112320000Y-118806738D01*
G75*
G02*
X112591738Y-118535000I271738J0D01*
G01*
X113298262Y-118535000D01*
G75*
G02*
X113570000Y-118806738I0J-271738D01*
G01*
X113570000Y-119763262D01*
G75*
G02*
X113298262Y-120035000I-271738J0D01*
G01*
X112591738Y-120035000D01*
G75*
G02*
X112320000Y-119763262I0J271738D01*
G01*
G37*
D16*
X105320000Y-119260000D03*
X109920000Y-119260000D03*
X107620000Y-119260000D03*
D17*
X107620000Y-112960000D03*
D18*
X108000000Y-123190000D03*
X108795936Y-123190000D03*
X109591854Y-123190000D03*
X110387772Y-123190000D03*
X111183690Y-123190000D03*
X111979608Y-123190000D03*
X112775526Y-123190000D03*
X113571444Y-123190000D03*
X114367362Y-123190000D03*
X115163280Y-123190000D03*
X115959198Y-123190000D03*
X116755116Y-123190000D03*
X117551034Y-123190000D03*
X118346952Y-123190000D03*
X119142870Y-123190000D03*
X119938788Y-123190000D03*
X120734706Y-123190000D03*
X121530624Y-123190000D03*
X122326542Y-123190000D03*
X123122460Y-123190000D03*
X123918378Y-123190000D03*
X124714296Y-123190000D03*
X125510214Y-123190000D03*
X126306132Y-123190000D03*
X127102050Y-123190000D03*
X127897968Y-123190000D03*
X128693886Y-123190000D03*
X129489804Y-123190000D03*
X130285722Y-123190000D03*
X131081640Y-123190000D03*
X131877558Y-123190000D03*
X132673476Y-123190000D03*
X133469394Y-123190000D03*
X134265312Y-123190000D03*
X135061230Y-123190000D03*
X135857148Y-123190000D03*
X136653066Y-123190000D03*
X137448984Y-123190000D03*
X138244902Y-123190000D03*
X139040820Y-123190000D03*
X139836738Y-123190000D03*
X140632656Y-123190000D03*
X141428574Y-123190000D03*
X142224492Y-123190000D03*
X143020410Y-123190000D03*
X143816328Y-123190000D03*
X144612246Y-123190000D03*
X145408164Y-123190000D03*
X146204082Y-123190000D03*
X147000000Y-123190000D03*
D19*
X144005000Y-107044500D03*
X143205000Y-107044500D03*
X142405000Y-107044500D03*
X141605000Y-107044500D03*
X140805000Y-107044500D03*
X140005000Y-107044500D03*
X139205000Y-107044500D03*
X138405000Y-107044500D03*
X137605000Y-107044500D03*
X136805000Y-107044500D03*
X136005000Y-107044500D03*
D20*
X134305000Y-108744500D03*
X134305000Y-109544500D03*
X134305000Y-110344500D03*
X134305000Y-111144500D03*
X134305000Y-111944500D03*
X134305000Y-112744500D03*
X134305000Y-113544500D03*
X134305000Y-114344500D03*
X134305000Y-115144500D03*
X134305000Y-115944500D03*
X134305000Y-116744500D03*
D19*
X136005000Y-118444500D03*
X136805000Y-118444500D03*
X137605000Y-118444500D03*
X138405000Y-118444500D03*
X139205000Y-118444500D03*
X140005000Y-118444500D03*
X140805000Y-118444500D03*
X141605000Y-118444500D03*
X142405000Y-118444500D03*
X143205000Y-118444500D03*
X144005000Y-118444500D03*
D20*
X145705000Y-116744500D03*
X145705000Y-115944500D03*
X145705000Y-115144500D03*
X145705000Y-114344500D03*
X145705000Y-113544500D03*
X145705000Y-112744500D03*
X145705000Y-111944500D03*
X145705000Y-111144500D03*
X145705000Y-110344500D03*
X145705000Y-109544500D03*
X145705000Y-108744500D03*
M02*
